<svg width="195" height="48" viewBox="0 0 195 48" fill="none" xmlns="http://www.w3.org/2000/svg">
<path d="M181.536 25.2418C181.272 25.2817 181.005 25.3091 180.747 25.369C180.579 25.4064 180.507 25.2967 180.395 25.2394C180.358 25.2194 180.317 25.1795 180.283 25.1845C180.021 25.2244 179.76 25.2693 179.499 25.3141C179.419 25.4114 179.368 25.541 179.246 25.5884C179.126 25.6332 178.984 25.6333 178.851 25.6557C178.675 25.6831 178.499 25.7106 178.323 25.7355C178.235 25.748 178.163 25.7953 178.134 25.8851C178.128 25.9 178.187 25.9374 178.219 25.9598C178.326 26.0346 178.43 26.1194 178.547 26.1767C178.659 26.2316 178.798 26.1418 178.918 26.2116C179.187 26.3687 179.19 26.3662 179.395 26.3363C179.571 26.3089 179.747 26.279 179.923 26.259C179.958 26.254 179.997 26.2914 180.035 26.3114C180.147 26.3662 180.219 26.4909 180.384 26.4435C180.509 26.4061 180.648 26.3986 180.779 26.3787C180.888 26.451 180.989 26.5333 181.107 26.5906C181.216 26.6454 181.248 26.6878 181.189 26.7601C181.136 26.8275 181.061 26.8549 180.963 26.8599C180.875 26.8624 180.787 26.8848 180.699 26.8972C180.653 26.9047 180.611 26.9097 180.568 26.9172C180.4 26.9446 180.4 26.9446 180.093 26.7851C179.973 26.7227 179.838 26.81 179.723 26.7502C179.646 26.7103 179.579 26.6504 179.504 26.6081C179.472 26.5906 179.422 26.5881 179.382 26.5931C179.248 26.6105 179.115 26.623 178.987 26.6554C178.896 26.6779 178.843 26.7477 178.854 26.8175C178.856 26.8449 178.92 26.8848 178.958 26.8873C179.043 26.8923 179.134 26.8574 179.216 26.8748C179.296 26.8923 179.379 26.9421 179.438 26.997C179.558 27.1117 179.693 27.0095 179.808 27.0394C179.928 27.0718 180.027 27.1715 180.141 27.2313C180.171 27.2463 180.227 27.2214 180.272 27.2139C180.403 27.1964 180.533 27.1815 180.664 27.164C180.773 27.2363 180.891 27.3011 180.989 27.3834C181.168 27.533 181.36 27.5903 181.592 27.518C181.723 27.4781 181.851 27.4931 181.955 27.5903C182.061 27.6901 182.184 27.6801 182.32 27.6601C182.445 27.6402 182.573 27.5853 182.701 27.6552C182.979 27.8097 182.981 27.8172 183.309 27.7574C183.408 27.7399 183.483 27.7349 183.557 27.7923C183.627 27.8446 183.701 27.8895 183.773 27.9394C183.904 27.9219 184.037 27.9045 184.168 27.8845C184.336 27.8571 184.429 27.892 184.469 28.0316C184.493 28.1164 184.504 28.1937 184.563 28.251C184.632 28.3208 184.706 28.3183 184.808 28.2984C184.904 28.2809 184.973 28.2535 185.013 28.1638C185.029 28.1264 185.061 28.0914 185.09 28.0615C185.114 28.0391 185.152 28.0042 185.173 28.0092C185.213 28.0192 185.266 28.0466 185.28 28.079C185.41 28.3806 185.41 28.3831 185.544 28.4704C185.69 28.5676 185.842 28.6549 185.976 28.7646C186.096 28.8618 186.216 28.8194 186.346 28.8194C186.445 28.8194 186.509 28.8843 186.501 28.9491C186.496 28.9865 186.458 29.0413 186.426 29.0463C186.165 29.0962 185.901 29.1385 185.637 29.1734C185.605 29.1784 185.565 29.1336 185.528 29.1111C185.453 29.0662 185.386 28.9964 185.306 28.9815C185.226 28.9665 185.133 29.0039 185.045 29.0164C184.957 29.0288 184.864 29.0613 184.784 29.0413C184.704 29.0214 184.64 28.9491 184.565 28.9017C184.531 28.8793 184.483 28.8469 184.453 28.8543C184.259 28.9142 184.115 28.8319 183.976 28.7222C183.947 28.6998 183.896 28.6848 183.859 28.6898C183.549 28.7322 183.243 28.782 182.933 28.8294C182.808 28.8493 182.707 28.7621 182.68 28.615C182.667 28.5327 182.64 28.4504 182.64 28.3682C182.64 28.2186 182.493 28.1363 182.387 28.1538C182.211 28.1787 182.032 28.1986 181.859 28.236C181.717 28.266 181.597 28.236 181.501 28.1463C181.389 28.0441 181.261 28.064 181.133 28.0914C181.037 28.1114 181.011 28.1937 181.016 28.4006C181.021 28.5676 180.976 28.62 180.803 28.6474C180.584 28.6823 180.363 28.7172 180.141 28.7446C180.107 28.7496 180.067 28.7072 180.032 28.6848C179.957 28.6399 179.891 28.5676 179.811 28.5527C179.731 28.5352 179.638 28.5726 179.55 28.5876C179.462 28.6 179.368 28.6349 179.288 28.6175C179.208 28.6 179.142 28.5253 179.07 28.4779C179.035 28.4554 178.992 28.423 178.958 28.428C178.782 28.448 178.606 28.4779 178.43 28.5053C178.232 28.5352 178.232 28.5352 177.952 28.3807C177.824 28.3108 177.696 28.3657 177.571 28.3856C177.438 28.4056 177.312 28.4156 177.208 28.3158C177.139 28.251 177.062 28.2111 176.979 28.2236C176.758 28.2535 176.539 28.2909 176.318 28.3208C176.28 28.3258 176.23 28.3133 176.2 28.2909C176.059 28.1862 175.92 28.1039 175.723 28.1563C175.553 28.2011 175.369 28.2036 175.198 28.246C175.105 28.2685 175.062 28.3482 175.08 28.4106C175.091 28.443 175.147 28.4804 175.185 28.4804C175.27 28.4829 175.363 28.4455 175.443 28.4604C175.608 28.4903 175.691 28.6998 175.907 28.6424C176.035 28.6075 176.168 28.595 176.302 28.5851C176.336 28.5826 176.374 28.63 176.411 28.6549C176.518 28.7222 176.611 28.8094 176.766 28.7646C176.894 28.7297 177.03 28.7197 177.16 28.6998C177.368 28.6674 177.368 28.6699 177.638 28.8219C177.766 28.8942 177.894 28.8369 178.019 28.8194C178.112 28.807 178.2 28.782 178.275 28.8169C178.39 28.8693 178.472 28.9889 178.614 28.9815C178.747 28.974 178.878 28.9391 179.011 28.9266C179.094 28.9191 179.171 28.959 179.238 29.0264C179.307 29.0937 179.382 29.1236 179.472 29.1086C179.603 29.0887 179.736 29.0637 179.869 29.0513C179.907 29.0488 179.95 29.0712 179.984 29.0912C180.059 29.1361 180.131 29.1884 180.203 29.2358C180.333 29.2208 180.467 29.2158 180.595 29.1859C180.693 29.1635 180.763 29.1735 180.843 29.2233C180.944 29.2906 181.027 29.4103 181.192 29.353C181.275 29.3255 181.371 29.333 181.453 29.3081C181.555 29.2757 181.624 29.2881 181.696 29.3629C181.832 29.505 182.003 29.5075 182.179 29.4527C182.371 29.3928 182.515 29.4627 182.659 29.5724C182.811 29.687 182.811 29.6845 182.928 29.9613C182.963 30.041 183.061 30.0785 183.144 30.0635C183.283 30.0386 183.403 30.051 183.504 30.1458C183.611 30.248 183.739 30.2355 183.869 30.2081C184.043 30.1707 184.216 30.1383 184.357 30.2829C184.427 30.3527 184.501 30.3701 184.595 30.3527C184.859 30.3078 185.125 30.2804 185.384 30.2255C185.541 30.1906 185.632 30.2704 185.738 30.3377C185.882 30.43 186.04 30.5122 186.04 30.7092C186.04 30.7416 186.077 30.779 186.109 30.8039C186.178 30.8563 186.253 30.9012 186.325 30.951C186.432 31.0258 186.536 31.0881 186.682 31.0483C186.81 31.0158 186.946 31.0059 187.077 30.9834C187.208 30.961 187.328 30.9485 187.445 31.0433C187.581 31.1505 187.725 31.2527 187.88 31.3325C187.989 31.3898 188.133 31.2926 188.25 31.3699C188.322 31.4172 188.392 31.4721 188.469 31.512C188.501 31.5294 188.552 31.5169 188.594 31.512C188.682 31.502 188.773 31.4945 188.858 31.4696C188.957 31.4422 189.032 31.4472 189.106 31.5045C189.176 31.5569 189.245 31.6291 189.325 31.6441C189.445 31.6665 189.578 31.5668 189.698 31.6815C189.759 31.7388 189.837 31.7937 189.917 31.8112C189.997 31.8286 190.09 31.7912 190.175 31.7937C190.213 31.7937 190.258 31.8336 190.279 31.866C190.293 31.8834 190.274 31.9308 190.255 31.9557C190.231 31.9857 190.197 32.0256 190.162 32.0305C189.898 32.0754 189.634 32.1128 189.37 32.1552C189.213 32.1801 189.213 32.1801 188.896 32.0231C188.821 31.9857 188.738 31.9931 188.645 32.0106C188.52 32.033 188.392 32.0754 188.261 32.0305C188.09 31.861 187.88 31.846 187.656 31.9109C187.562 31.9383 187.477 31.9383 187.408 31.8909C187.261 31.7962 187.106 31.7089 186.976 31.5968C186.874 31.5095 186.826 31.502 186.784 31.6217C186.77 31.6591 186.757 31.6989 186.76 31.7339C186.776 31.8585 186.805 31.9807 186.821 32.1053C186.826 32.1402 186.805 32.1801 186.792 32.2175C186.749 32.3222 186.693 32.3147 186.6 32.2275C186.506 32.1402 186.394 32.0829 186.245 32.1228C186.117 32.1577 185.978 32.1527 185.85 32.1901C185.653 32.245 185.514 32.1652 185.373 32.058C185.344 32.0355 185.293 32.0231 185.256 32.0281C184.859 32.0854 184.464 32.1502 184.067 32.2075C183.981 32.22 183.904 32.1826 183.837 32.1153C183.768 32.048 183.691 32.0131 183.605 32.0256C183.253 32.0779 182.901 32.1253 182.549 32.1901C182.405 32.2175 182.291 32.1851 182.192 32.0978C182.117 32.033 182.048 32.0131 181.955 32.0206C181.853 32.028 181.781 32.053 181.731 32.1253C181.683 32.1951 181.717 32.2375 181.824 32.2923C181.939 32.3521 182.045 32.4294 182.155 32.4992C182.243 32.4893 182.331 32.4693 182.416 32.4718C182.453 32.4718 182.488 32.5167 182.525 32.5416C182.632 32.6139 182.731 32.6862 182.883 32.6463C183.011 32.6114 183.147 32.6039 183.277 32.5815C183.459 32.5541 183.459 32.5541 183.752 32.7112C183.827 32.751 183.907 32.7485 184.003 32.7261C184.085 32.7086 184.171 32.7435 184.229 32.8183C184.253 32.8483 184.245 32.8981 184.195 33.0627C184.195 33.1849 184.251 33.13 184.269 33.0502C184.298 32.9355 184.243 32.8981 184.136 32.9605C184.061 33.0053 184.024 33.0702 184.043 33.1225C184.053 33.1499 184.104 33.1849 184.195 33.0627C184.429 32.9131 184.608 32.8956 184.779 32.8557C184.88 32.8333 184.944 32.8433 185.024 32.9081C185.12 32.9854 185.216 33.0677 185.373 33.0278C185.544 32.9829 185.725 32.9779 185.898 32.9405C186.058 32.9056 186.141 33.0153 186.242 33.0801C186.365 33.1574 186.501 33.0702 186.613 33.115C186.73 33.1599 186.813 33.2696 186.949 33.2895C187.146 33.2222 187.272 33.3469 187.421 33.4292C187.538 33.4915 187.677 33.4366 187.802 33.4092C187.944 33.3793 188.061 33.4067 188.16 33.4965C188.272 33.5987 188.397 33.5763 188.525 33.5538C188.824 33.504 188.834 33.4965 189.008 33.6336C189.133 33.7333 189.253 33.6884 189.378 33.676C189.488 33.7433 189.594 33.8156 189.709 33.8754C189.738 33.8904 189.794 33.8655 189.839 33.858C189.97 33.838 190.103 33.8181 190.234 33.7981C190.322 33.7857 190.415 33.7483 190.495 33.7632C190.575 33.7807 190.642 33.853 190.714 33.9004C190.786 33.9477 190.861 33.9951 190.93 34.045C191.037 34.1197 191.138 34.1821 191.287 34.1447C191.415 34.1123 191.549 34.1023 191.682 34.0799C191.85 34.0524 191.845 34.0599 192.157 34.2095C192.325 34.2918 192.498 34.1921 192.669 34.1821C192.754 34.1771 192.837 34.2045 192.895 34.2768C192.919 34.3067 192.911 34.3566 192.919 34.399C192.479 34.4663 192.037 34.5236 191.602 34.6059C191.434 34.6383 191.346 34.5486 191.255 34.4738C191.106 34.3541 190.909 34.5286 190.767 34.374C190.682 34.2818 190.559 34.2295 190.413 34.2743C190.327 34.2993 190.237 34.2968 190.149 34.3192C189.925 34.374 189.719 34.3765 189.541 34.2045C189.479 34.1447 189.392 34.1123 189.328 34.0549C189.253 33.9926 189.181 33.9577 189.093 33.9702C188.696 34.03 188.301 34.0898 187.906 34.1546C187.872 34.1596 187.837 34.197 187.808 34.2245C187.733 34.2943 187.757 34.3491 187.877 34.394C187.917 34.409 187.949 34.4413 187.986 34.4663C188.058 34.5136 188.125 34.5884 188.205 34.6059C188.285 34.6234 188.378 34.5885 188.466 34.576C188.554 34.5635 188.648 34.5261 188.728 34.5411C188.808 34.5585 188.874 34.6308 188.949 34.6757C188.984 34.6982 189.026 34.7355 189.061 34.7331C189.237 34.7181 189.41 34.6907 189.586 34.6682C189.695 34.7355 189.789 34.8328 189.919 34.8552C190.002 34.8702 190.09 34.8427 190.175 34.8477C190.213 34.8502 190.261 34.8876 190.279 34.92C190.29 34.94 190.255 34.9898 190.229 35.0148C190.127 35.1095 189.989 35.092 189.863 35.122C189.728 35.1544 189.605 35.1444 189.501 35.0472C189.431 34.9824 189.354 34.9475 189.269 34.9599C189.047 34.9923 188.829 35.0297 188.608 35.0572C188.57 35.0622 188.525 35.0397 188.49 35.0223C188.21 34.8702 188.21 34.8652 188.013 34.8976C187.722 34.945 187.722 34.945 187.528 34.8128C187.49 34.7879 187.45 34.7405 187.418 34.743C187.109 34.7829 186.802 34.8228 186.496 34.8801C186.394 34.8976 186.325 34.8976 186.25 34.8328C186.186 34.7779 186.112 34.7156 186.032 34.7006C185.949 34.6857 185.858 34.7231 185.77 34.7355C185.682 34.748 185.589 34.7804 185.512 34.7605C185.432 34.7405 185.362 34.6707 185.293 34.6209C185.221 34.5685 185.144 34.571 185.045 34.5909C184.741 34.6483 184.739 34.6408 184.437 34.4862C184.403 34.4688 184.357 34.4488 184.32 34.4538C184.099 34.4837 183.88 34.5211 183.659 34.5511C183.573 34.5635 183.491 34.5311 183.432 34.4588C183.408 34.4289 183.416 34.379 183.4 34.2818C183.381 34.2593 183.403 34.2993 183.408 34.3367C183.448 34.3317 183.496 34.3366 183.525 34.3167C183.6 34.2693 183.637 34.207 183.619 34.1546C183.608 34.1272 183.557 34.0923 183.525 34.0923C183.467 34.0923 183.416 34.1472 183.4 34.2818C183.232 34.3641 183.053 34.3815 182.88 34.4214C182.779 34.4463 182.715 34.4339 182.635 34.3691C182.539 34.2893 182.44 34.212 182.283 34.2519C182.112 34.2967 181.931 34.3043 181.755 34.3392C181.552 34.379 181.464 34.1546 181.293 34.1596C181.117 34.1646 180.941 34.207 180.765 34.2369C180.611 34.2619 180.611 34.2618 180.291 34.0998C180.173 34.04 180.035 34.1272 179.92 34.0649C179.843 34.025 179.776 33.9652 179.702 33.9228C179.67 33.9053 179.619 33.9053 179.579 33.9103C179.358 33.9402 179.134 33.9602 178.92 34.015C178.678 34.0799 178.494 34.0101 178.32 33.863C178.102 33.8904 177.88 33.9053 177.664 33.9527C177.507 33.9876 177.416 33.9054 177.31 33.838C177.272 33.8156 177.24 33.7782 177.2 33.7682C177.16 33.7583 177.112 33.7782 177.07 33.7857C176.894 33.8131 176.712 33.8256 176.542 33.8705C176.331 33.9278 176.251 33.7233 176.088 33.6984C175.979 33.8206 175.92 33.9876 175.704 34.0001C175.528 34.01 175.353 34.0499 175.177 34.0774C175.089 34.0898 175.001 34.1048 174.913 34.1173C174.771 34.1397 174.705 34.2369 174.734 34.3865C174.75 34.4688 174.763 34.551 174.777 34.6333C174.803 34.7804 174.737 34.9051 174.625 34.9225C174.315 34.9699 174.009 35.0197 173.699 35.0621C173.617 35.0746 173.537 35.0322 173.47 34.9649C173.401 34.8976 173.323 34.8677 173.238 34.8801C172.929 34.9275 172.622 34.9774 172.313 35.0198C172.278 35.0247 172.233 34.9998 172.198 34.9799C172.123 34.935 172.051 34.8826 171.979 34.8353C171.803 34.8577 171.63 34.8726 171.457 34.9026C171.177 34.9474 171.177 34.9499 170.971 34.8128C170.934 34.7879 170.897 34.7405 170.862 34.743C170.729 34.753 170.598 34.7779 170.465 34.8004C170.073 34.8652 170.073 34.8652 169.958 34.7904C169.854 34.7206 169.761 34.6358 169.604 34.6757C169.433 34.7206 169.252 34.7355 169.076 34.7605C168.945 34.7779 168.814 34.7979 168.684 34.8029C168.649 34.8054 168.612 34.758 168.574 34.7331C168.468 34.6558 168.364 34.5934 168.217 34.6358C168.132 34.6607 168.041 34.6657 167.953 34.6782C167.724 34.7131 167.724 34.7131 167.348 34.5635C167.31 34.5485 167.265 34.5311 167.228 34.5386C166.918 34.5835 166.612 34.6333 166.302 34.6757C166.265 34.6807 166.22 34.6657 166.182 34.6533C165.761 34.5087 165.761 34.5087 165.313 34.5785C165.143 34.6034 165.137 34.6134 164.959 34.4812C164.879 34.4239 164.812 34.3965 164.719 34.4139C164.367 34.4738 164.012 34.5137 163.663 34.5835C163.505 34.6134 163.415 34.5386 163.308 34.4713C163.271 34.4488 163.231 34.399 163.199 34.4015C162.847 34.4488 162.495 34.5062 162.143 34.5536C162.111 34.5585 162.071 34.5087 162.033 34.4862C161.961 34.4414 161.892 34.374 161.812 34.3591C161.729 34.3441 161.639 34.3815 161.548 34.394C161.327 34.4264 161.327 34.4239 161.071 34.2768C161.036 34.2569 160.991 34.2294 160.956 34.2344C160.604 34.2843 160.25 34.3267 159.9 34.399C159.7 34.4389 159.564 34.3666 159.423 34.2619C159.394 34.2394 159.343 34.2294 159.306 34.2344C158.908 34.2918 158.514 34.3566 158.116 34.4139C158.034 34.4264 157.954 34.384 157.887 34.3192C157.78 34.217 157.655 34.2294 157.522 34.2519C157.215 34.3042 157.212 34.3018 157.031 34.1821C156.994 34.1572 156.962 34.1247 156.922 34.1123C156.884 34.0998 156.836 34.1073 156.796 34.1123C156.621 34.1372 156.445 34.1646 156.269 34.192C156.093 34.2195 155.914 34.2344 155.741 34.2768C155.527 34.3292 155.426 34.1671 155.277 34.0923C155.058 34.1247 154.834 34.1447 154.618 34.197C154.453 34.2369 154.375 34.1272 154.266 34.0699C154.229 34.0499 154.189 34.0076 154.154 34.0125C153.757 34.0674 153.359 34.1272 152.965 34.1945C152.869 34.2095 152.805 34.1895 152.725 34.1297C152.546 33.9951 152.538 34.0001 152.239 34.0499C152.109 34.0724 151.983 34.0923 151.871 33.9901C151.773 33.8979 151.653 33.8754 151.512 33.9053C151.338 33.9427 151.16 33.9627 150.984 33.9876C150.808 34.015 150.632 34.0524 150.456 34.0649C150.314 34.0774 150.229 33.9602 150.117 33.9004C150.082 33.8829 150.034 33.8804 149.994 33.8854C149.818 33.9078 149.637 33.9253 149.466 33.9677C149.258 34.02 149.144 33.8829 148.997 33.8031C148.965 33.7857 148.912 33.7957 148.872 33.8031C148.562 33.848 148.256 33.8979 147.946 33.9452C147.837 33.8779 147.725 33.8131 147.616 33.7458C147.44 33.7707 147.264 33.7981 147.088 33.8231C146.954 33.843 146.819 33.8505 146.693 33.8879C146.531 33.9378 146.451 33.8206 146.341 33.7632C146.304 33.7433 146.264 33.7009 146.229 33.7059C146.008 33.7333 145.787 33.7632 145.568 33.8056C145.36 33.848 145.277 33.6236 145.107 33.6261C144.931 33.6286 144.749 33.661 144.579 33.7059C144.381 33.7583 144.243 33.6785 144.101 33.5713C144.072 33.5488 144.021 33.5364 143.984 33.5413C143.763 33.5713 143.544 33.6087 143.323 33.6386C143.285 33.6436 143.24 33.6311 143.203 33.6162C142.781 33.4691 142.781 33.4666 142.598 33.4965C142.467 33.5164 142.334 33.5414 142.2 33.5538C142.163 33.5588 142.117 33.5364 142.083 33.5164C141.806 33.3643 141.806 33.3618 141.606 33.3918C141.43 33.4192 141.254 33.4466 141.078 33.474C140.968 33.4067 140.856 33.3419 140.747 33.2746C140.528 33.307 140.304 33.3319 140.088 33.3768C139.987 33.3967 139.92 33.3893 139.843 33.3269C139.747 33.2522 139.651 33.1649 139.491 33.2073C139.32 33.2522 139.139 33.2571 138.966 33.2945C138.758 33.3394 138.672 33.1125 138.504 33.115C138.328 33.1175 138.147 33.1499 137.976 33.1948C137.779 33.2472 137.64 33.1674 137.499 33.0602C137.47 33.0378 137.419 33.0253 137.382 33.0303C136.897 33.1026 136.414 33.1749 135.929 33.2521C135.63 33.2995 135.63 33.302 135.062 33.1649C135.022 33.1549 134.979 33.145 134.939 33.1499C134.763 33.1724 134.582 33.1898 134.411 33.2322C134.203 33.2846 134.089 33.1499 133.942 33.0677C133.91 33.0502 133.859 33.0602 133.817 33.0652C133.683 33.0826 133.553 33.1051 133.419 33.125C133.243 33.1524 133.067 33.1799 132.891 33.2073C132.782 33.1425 132.67 33.0751 132.561 33.0103C132.342 33.0427 132.118 33.0602 131.902 33.1125C131.737 33.1524 131.66 33.0477 131.55 32.9879C131.513 32.9679 131.473 32.9256 131.438 32.9281C131.041 32.9829 130.644 33.0402 130.249 33.11C130.086 33.14 130.012 33.0278 129.902 32.9704C129.865 32.953 129.822 32.9206 129.788 32.9256C129.524 32.9605 129.26 33.0028 128.996 33.0452C128.846 33.0702 128.846 33.0701 128.521 32.9156C128.484 32.8981 128.441 32.8807 128.404 32.8857C127.567 33.0103 126.732 33.1425 125.895 33.2671C125.809 33.2796 125.732 33.2422 125.665 33.1749C125.596 33.1076 125.519 33.0727 125.433 33.0851C125.081 33.1375 124.727 33.1849 124.377 33.2497C124.233 33.2771 124.119 33.2447 124.02 33.1574C123.945 33.0926 123.876 33.0677 123.783 33.0826C123.607 33.1125 123.431 33.1375 123.255 33.1649C123.079 33.1923 122.903 33.2198 122.727 33.2472C122.551 33.2746 122.372 33.2896 122.199 33.3319C121.986 33.3843 121.882 33.2297 121.735 33.1524C121.471 33.1898 121.207 33.2272 120.946 33.2671C120.594 33.3195 120.242 33.3768 119.89 33.4267C119.858 33.4317 119.818 33.3868 119.78 33.3643C119.671 33.302 119.591 33.2148 119.428 33.2422C118.639 33.3743 117.845 33.4865 117.053 33.6162C116.887 33.6436 116.815 33.5364 116.703 33.479C116.666 33.4616 116.623 33.4267 116.589 33.4317C116.149 33.494 115.709 33.5638 115.269 33.6311C115.09 33.6585 115.09 33.6585 114.791 33.5039C114.757 33.4865 114.711 33.464 114.674 33.469C114.101 33.5538 113.53 33.6436 112.957 33.7308C112.872 33.7433 112.794 33.7084 112.725 33.6411C112.658 33.5738 112.578 33.5364 112.496 33.5488C111.968 33.6286 111.437 33.7059 110.912 33.7932C110.77 33.8181 110.653 33.7956 110.552 33.7059C110.48 33.6411 110.408 33.6136 110.317 33.6286C109.525 33.7508 108.733 33.868 107.941 33.9976C107.789 34.0225 107.683 33.9752 107.587 33.8929C107.509 33.8281 107.443 33.8156 107.347 33.8256C107.245 33.838 107.184 33.8654 107.128 33.9402C107.056 34.0375 107.011 34.1596 106.84 34.1671C106.664 34.1746 106.485 34.2045 106.312 34.2469C106.147 34.2893 106.069 34.1771 105.965 34.1098C105.888 34.0624 105.816 34.0549 105.717 34.0774C105.627 34.0973 105.571 34.1397 105.517 34.2195C105.4 34.389 105.389 34.389 105.245 34.2818C105.168 34.2244 105.099 34.1796 105.013 34.1895C104.661 34.2394 104.31 34.2943 103.958 34.3516C103.755 34.384 103.752 34.389 103.6 34.2643C103.526 34.202 103.454 34.1721 103.366 34.187C102.398 34.3366 101.43 34.4812 100.462 34.6383C100.312 34.6632 100.211 34.6109 100.104 34.5361C100.07 34.5112 100.035 34.4762 99.9952 34.4663C99.9552 34.4563 99.9099 34.4663 99.8672 34.4713C99.1632 34.5785 98.4566 34.6807 97.7553 34.8004C97.5953 34.8278 97.51 34.748 97.4007 34.6832C97.3634 34.6608 97.3313 34.6259 97.2913 34.6159C97.2513 34.6084 97.2033 34.6258 97.1607 34.6333C96.4567 34.7405 95.7501 34.8428 95.0488 34.9624C94.8809 34.9899 94.8088 34.8851 94.6995 34.8303C94.6622 34.8103 94.6222 34.7729 94.5876 34.7779C94.3662 34.8053 94.1476 34.8427 93.9263 34.8751C93.3983 34.9574 92.8703 35.0347 92.3423 35.1195C92.1397 35.1519 92.0517 34.93 91.881 34.94C91.6597 34.9524 91.4411 35.0023 91.2198 35.0372C91.0438 35.0646 90.8678 35.0896 90.6918 35.1195C90.5185 35.1469 90.5185 35.1469 90.0865 35.0023C90.0492 34.9898 90.0039 34.9724 89.9665 34.9774C89.3506 35.0696 88.732 35.1619 88.1187 35.2616C87.9773 35.284 87.86 35.2716 87.7587 35.1793C87.6867 35.1145 87.612 35.0821 87.5241 35.097C86.5988 35.2391 85.6761 35.3813 84.7509 35.5209C84.7162 35.5259 84.6709 35.5009 84.6362 35.481C84.5616 35.4361 84.4896 35.3838 84.4176 35.3364C84.3642 35.3937 84.295 35.4461 84.2603 35.5109C84.2123 35.5982 84.1483 35.6231 84.047 35.638C83.9456 35.653 83.8817 35.648 83.8017 35.5832C83.7057 35.5034 83.607 35.4411 83.4497 35.466C82.4817 35.6231 81.5138 35.7652 80.5458 35.9198C80.3858 35.9447 80.3112 35.835 80.1992 35.7776C80.1619 35.7602 80.1192 35.7328 80.0845 35.7378C79.6872 35.7951 79.2926 35.8574 78.8953 35.9173C77.794 36.0868 76.6928 36.2489 75.5942 36.4284C75.3942 36.4608 75.2582 36.3984 75.1169 36.2912C75.0876 36.2688 75.0369 36.2563 74.9996 36.2613C73.4584 36.4957 71.9171 36.7325 70.3786 36.9693C70.2959 36.9818 70.2159 36.9419 70.1492 36.8771C70.0799 36.8098 70.0026 36.7774 69.9173 36.7899C69.2133 36.8971 68.5094 37.0043 67.8055 37.114C67.6295 37.1414 67.6268 37.1439 67.4455 37.0242C67.4081 36.9993 67.3682 36.9519 67.3388 36.9569C67.2775 36.9694 67.2188 37.0317 67.1761 37.1164C67.1335 37.2062 67.0668 37.2311 66.9681 37.2486C66.8668 37.266 66.8002 37.2586 66.7229 37.1987C66.6242 37.1239 66.5335 37.0516 66.3735 37.0766C64.3497 37.3957 62.3258 37.7023 60.302 38.0189C60.1393 38.0439 60.0646 37.9392 59.9526 37.8818C59.9153 37.8644 59.878 37.8394 59.838 37.8344C59.7953 37.8295 59.75 37.8444 59.7073 37.8519C56.4062 38.358 53.1052 38.8666 49.8041 39.3727C49.6067 39.4026 49.6094 39.4026 49.3934 39.632C49.3668 39.6594 49.3321 39.6968 49.2947 39.7018C48.2841 39.8613 47.2709 40.0159 46.2576 40.1705C45.8177 40.2378 45.3777 40.3076 44.9377 40.3724C44.7804 40.3949 44.7804 40.3949 44.4044 40.6641C44.3724 40.6866 44.3351 40.7165 44.2977 40.7215C42.5379 40.9932 40.778 41.265 39.0154 41.5317C38.8768 41.5517 38.7648 41.5965 38.7008 41.7162C38.6555 41.801 38.5968 41.8508 38.5088 41.8658C37.2769 42.0553 36.045 42.2472 34.8105 42.4317C34.6638 42.4542 34.5758 42.524 34.5038 42.6287C34.4798 42.6636 34.4584 42.7035 34.4238 42.7284C34.3918 42.7508 34.3438 42.7583 34.3038 42.7658C33.2479 42.9278 32.192 43.0949 31.1334 43.2495C30.9761 43.2719 30.912 43.3641 30.8347 43.4614C30.808 43.4938 30.7894 43.5387 30.7547 43.5611C30.72 43.581 30.6694 43.581 30.6267 43.586C29.7468 43.7207 28.8669 43.8578 27.9869 43.9924C27.8163 43.9799 27.7789 44.1245 27.6963 44.2118C27.6669 44.2417 27.6456 44.2816 27.611 44.3015C27.5736 44.3215 27.5256 44.319 27.4803 44.324C26.7763 44.4312 26.0724 44.5459 25.3658 44.6456C25.2031 44.668 25.1711 44.7952 25.0831 44.8824C25.0538 44.9099 25.0245 44.9522 24.9898 44.9597C24.5498 45.032 24.1099 45.0993 23.6699 45.1641C23.5233 45.1866 23.5232 45.1841 23.2646 45.4309C23.2353 45.4583 23.2006 45.4883 23.1632 45.4957C22.5046 45.6005 21.8433 45.7002 21.1821 45.8024C21.0967 45.8149 21.0381 45.8747 20.9954 45.9595C20.9528 46.0442 20.8914 46.0991 20.8061 46.1115C20.2782 46.1938 19.7501 46.2786 19.2222 46.3534C19.0755 46.3733 18.9796 46.4356 18.9156 46.5478C18.8676 46.6326 18.8089 46.675 18.7156 46.6899C18.1876 46.7697 17.6597 46.857 17.129 46.9268C16.9744 46.9467 16.8943 47.0315 16.8304 47.1362C16.7797 47.221 16.721 47.2509 16.6224 47.2658C15.6544 47.4104 14.6839 47.555 13.7186 47.7146C13.5559 47.742 13.4733 47.6547 13.3666 47.5924C13.2146 47.5052 13.0733 47.4104 13.0733 47.216C13.0733 47.186 13.028 47.1511 12.996 47.1262C12.7587 46.9392 12.7587 46.9392 12.7213 46.7398C12.7 46.6176 12.676 46.493 12.6573 46.3683C12.6227 46.1639 12.5373 46.1115 12.292 46.1489C12.204 46.1614 12.116 46.1788 12.028 46.1888C11.8974 46.2063 11.7987 46.124 11.7747 45.9744C11.7614 45.8921 11.7454 45.8099 11.7321 45.7276C11.8654 45.7076 11.8627 45.7052 12.0974 45.4035C12.196 45.2764 12.1961 45.2764 12.0067 45.1492C11.9347 45.1018 11.8654 45.0495 11.7881 45.0046C11.7534 44.9846 11.7081 44.9722 11.6708 44.9772C11.4494 45.0071 11.2308 45.042 11.0121 45.0769C10.6602 45.1317 10.6601 45.1317 10.3028 44.8774C10.2735 44.8575 10.2282 44.8201 10.2335 44.8002C10.2628 44.7079 10.3348 44.668 10.4255 44.658C10.5588 44.6431 10.6894 44.6182 10.8201 44.5982C10.9081 44.5857 10.9961 44.5708 11.0841 44.5583C11.1667 44.4636 11.2521 44.3714 11.3294 44.2741C11.4521 44.1245 11.4521 44.1195 11.2841 44.0148C11.1774 43.945 11.0627 43.8827 10.9534 43.8179C10.8228 43.8378 10.6894 43.8603 10.5588 43.8777C10.3935 43.9001 10.3268 43.8528 10.2841 43.6907C10.2468 43.5486 10.2921 43.4265 10.4201 43.3966C10.5508 43.3666 10.6735 43.3467 10.7402 43.2196C10.8042 43.0974 10.9161 43.05 11.0548 43.04C11.1428 43.0325 11.2308 43.0151 11.3188 43.0002C11.4334 42.9802 11.4948 42.8531 11.4708 42.711C11.4574 42.6187 11.4308 42.5414 11.3268 42.5215C10.8655 42.4342 10.8601 42.4367 10.6308 42.2672C10.6095 42.2522 10.5935 42.2074 10.6015 42.1849C10.6148 42.1475 10.6442 42.0927 10.6762 42.0852C10.9828 42.0303 11.2894 41.9805 11.5961 41.9431C11.6974 41.9306 11.7721 41.9131 11.8067 41.8209C11.8547 41.6938 11.8334 41.5766 11.7401 41.4893C11.7108 41.4619 11.6627 41.427 11.6307 41.4295C11.2787 41.4744 10.9294 41.5317 10.5775 41.5766C10.5455 41.5816 10.4868 41.5392 10.4735 41.5068C10.4468 41.447 10.4868 41.3672 10.5801 41.3397C10.7028 41.3024 10.8281 41.2999 10.9108 41.1752C11.0254 40.9982 11.1668 40.8362 11.2947 40.6666C11.3161 40.6367 11.3508 40.5793 11.3428 40.5744C11.2761 40.5195 11.1988 40.4771 11.1295 40.4248C11.0121 40.3375 11.0121 40.2154 11.0388 40.0982C11.0601 40.0035 11.1401 39.9661 11.2388 39.9661C11.2814 39.9661 11.3347 39.9661 11.3694 39.9436C11.4601 39.8888 11.4894 39.8189 11.4441 39.7666C11.4174 39.7367 11.3694 39.6943 11.3374 39.6993C10.7668 39.7816 10.1935 39.8613 9.62552 39.9636C9.45754 39.9935 9.38026 39.8987 9.27893 39.8314C9.20161 39.7791 9.12957 39.7591 9.03357 39.7965C8.94291 39.8314 8.85495 39.8115 8.79895 39.7292C8.75362 39.6619 8.8336 39.6046 9.04959 39.5397C9.08958 39.5273 9.1349 39.5198 9.16423 39.4949C9.47354 39.2256 9.47353 39.2231 9.68685 39.1882C9.89483 39.1558 9.89488 39.1533 10.0042 39.0087C10.0549 38.9414 10.1108 38.8741 10.1588 38.8043C10.1775 38.7768 10.2095 38.727 10.1989 38.712C10.1402 38.6347 10.0602 38.6173 9.96684 38.6347C9.75885 38.6771 9.51358 38.6422 9.40425 38.8791C9.36159 38.9688 9.29492 38.9938 9.19893 39.0087C8.23366 39.1533 7.26836 39.3079 6.30043 39.4475C6.14311 39.4699 6.07116 39.5622 6.00983 39.6644C5.9565 39.7492 5.89782 39.7741 5.7965 39.7891C5.69517 39.804 5.61514 39.8115 5.55647 39.7292C5.52181 39.6794 5.55115 39.6096 5.63114 39.5397C5.7458 39.44 5.72446 39.3154 5.68713 39.1982C5.66046 39.1209 5.57781 39.0661 5.48981 39.071C5.35916 39.081 5.23386 39.1084 5.12454 39.0087C5.06054 38.9514 4.98053 38.9115 4.90854 38.8616C4.76988 38.7594 4.63122 38.6547 4.43657 38.722C4.30324 38.6971 4.20992 38.6073 4.10326 38.5375C3.9246 38.4228 3.9086 38.4054 4.0366 38.2832C4.18059 38.1461 4.06857 37.9666 4.14857 37.8319C4.23389 37.6874 4.35126 37.5602 4.45525 37.4256C4.48192 37.3907 4.50592 37.3583 4.53259 37.3234C4.47126 37.2735 4.41527 37.2112 4.34328 37.1763C4.24995 37.1314 4.20195 37.0766 4.20729 36.922C4.18862 36.8996 4.19657 36.9569 4.2179 36.9718C4.2419 36.9868 4.3006 36.9744 4.32993 36.9569C4.4046 36.9095 4.44189 36.8472 4.42322 36.7948C4.41256 36.7674 4.36193 36.7325 4.32993 36.7325C4.27127 36.7325 4.22062 36.7874 4.20462 36.922C3.90597 37.0242 3.59661 37.0741 3.2873 37.114C3.2553 37.119 3.21533 37.0691 3.178 37.0442C3.05534 36.9594 3.05532 36.9619 2.69535 36.9369C2.65802 36.9344 2.60738 36.8996 2.58872 36.8647C2.51139 36.7126 2.51408 36.5455 2.47674 36.3835C2.54607 36.2788 2.61535 36.1766 2.68734 36.0743C2.83133 35.8674 3.01803 35.6854 3.13002 35.4586C3.10602 35.3364 3.07402 35.2142 3.19134 35.1145C3.52465 34.9898 3.52201 34.9899 3.61267 34.8702C3.87132 34.5311 4.12728 34.1896 4.3966 33.8555C4.46859 33.7682 4.4686 33.7209 4.34061 33.6835C4.30061 33.6735 4.25789 33.671 4.21523 33.676C4.0819 33.6934 3.94858 33.7383 3.81793 33.7283C3.68727 33.7208 3.59128 33.6112 3.48462 33.5438C3.37529 33.474 3.26597 33.4017 3.15664 33.3294C3.03132 33.3369 2.90602 33.4067 2.78069 33.2945C2.6847 33.2073 2.56472 33.1449 2.45539 33.0726C2.53805 32.8832 2.69273 32.7386 2.81272 32.5715C2.92205 32.4194 2.92466 32.422 3.21797 32.3048C3.35663 32.2499 3.40462 31.9682 3.2873 31.8859C3.14598 31.7862 2.99668 31.694 2.85269 31.5992C2.72737 31.6067 2.59941 31.674 2.47941 31.5618C2.38609 31.4771 2.27941 31.4197 2.12475 31.4521C1.86344 31.507 1.5968 31.5344 1.33282 31.5793C1.24215 31.5942 1.14347 31.5843 1.10347 31.4995C1.0768 31.4397 1.15414 31.3574 1.24213 31.34C1.37546 31.315 1.49543 31.2851 1.5621 31.1605C1.62609 31.0358 1.7434 30.9984 1.88206 30.9809C1.91939 30.9759 1.96209 30.946 1.98075 30.9161C2.07674 30.7715 2.18341 30.6469 2.38873 30.6519C2.47406 30.602 2.51936 30.5397 2.49269 30.4798C2.4767 30.4474 2.42073 30.405 2.38873 30.41C2.16741 30.435 1.9461 30.4599 1.73012 30.5048C1.62879 30.5247 1.55142 30.5297 1.48743 30.4549C1.4421 30.405 1.46609 30.3377 1.55142 30.2654C1.62608 30.2031 1.64744 30.1308 1.6421 30.046C1.62877 29.8491 1.54876 29.7917 1.29278 29.8042C1.10879 29.8142 1.06346 29.7818 1.02346 29.6122C1.0128 29.5723 0.986178 29.5175 1.00484 29.4901C1.1195 29.3205 1.19417 29.1111 1.41015 29.0313C1.49548 29.0014 1.5861 29.0014 1.63943 28.9366C1.69276 28.8718 1.74078 28.797 1.79678 28.7347C1.86611 28.6599 1.91406 28.5901 1.88206 28.5427C1.82873 28.4579 1.74343 28.4505 1.64477 28.4804C1.55945 28.5053 1.46879 28.5078 1.38079 28.5227C1.22347 28.5502 1.09551 28.4854 1.07684 28.3757C1.02618 28.0865 0.972835 27.7998 0.927505 27.5106C0.922172 27.4757 0.935468 27.4308 0.9568 27.4009C1.03146 27.2961 1.11149 27.1964 1.18881 27.0942C1.27948 26.977 1.42349 26.9995 1.54615 26.977C1.71947 26.9446 1.71941 26.9471 1.95139 26.7078C2.04205 26.613 2.19938 26.6504 2.29271 26.5657C2.32204 26.5382 2.36737 26.4934 2.35937 26.4684C2.3487 26.436 2.2954 26.4111 2.25541 26.3961C2.21808 26.3812 2.17276 26.3737 2.13276 26.3812C1.64746 26.4535 1.16484 26.5308 0.679541 26.6006C0.59688 26.613 0.506217 26.5582 0.476886 26.4809C0.447555 26.4086 0.455528 26.3213 0.450195 26.2391C0.527523 26.1368 0.615483 26.0421 0.682145 25.9324C0.732808 25.8477 0.791481 25.8103 0.892807 25.8053C1.02613 25.7978 1.1568 25.7679 1.30612 25.7454C1.58344 25.3814 1.8554 25 2.15405 24.636C2.27404 24.4889 2.24475 24.3393 2.26875 24.1823C2.29275 24.0377 2.47139 24.0601 2.59139 24.0177C2.68738 23.9828 2.71933 23.903 2.682 23.8482C2.66067 23.8158 2.6127 23.7784 2.57537 23.7784C2.48738 23.7784 2.39939 23.8008 2.31139 23.8133C2.2234 23.8258 2.12208 23.8183 2.05008 23.8607C1.98075 23.9006 1.9354 23.9853 1.89007 24.0576C1.8394 24.1374 1.77279 24.1648 1.67146 24.1698C1.54081 24.1748 1.41016 24.1972 1.2795 24.2147C1.13551 24.1174 0.986155 24.0227 0.847498 23.9205C0.820833 23.9006 0.815472 23.8432 0.818138 23.8058C0.823471 23.7086 0.783484 23.6488 0.69549 23.6014C0.620829 23.5615 0.559495 23.5042 0.490166 23.4543C0.543496 23.387 0.602179 23.3221 0.644843 23.2498C0.73817 23.0978 0.855508 22.9881 1.05816 22.9931C1.13815 22.8959 1.20213 22.7762 1.30612 22.7089C1.40478 22.644 1.57278 22.7088 1.64744 22.5618C1.68477 22.4895 1.7408 22.4072 1.81279 22.3773C1.92745 22.3299 2.07677 22.3549 2.14343 22.2152C2.18343 22.1355 2.24207 22.0631 2.3194 22.0432C2.40739 22.0208 2.49803 22.0158 2.56203 21.9684C2.59669 21.9435 2.63403 21.9036 2.63403 21.8687C2.63403 21.8463 2.58074 21.8113 2.54341 21.7964C2.50874 21.7789 2.46336 21.7665 2.42336 21.7715C2.29004 21.7864 2.15938 21.8138 2.02606 21.8288C1.98873 21.8338 1.94608 21.8163 1.90608 21.8014C1.78876 21.7615 1.79674 21.7116 1.89007 21.6219C1.98339 21.5346 2.05009 21.4224 2.12742 21.3202C2.21275 21.3027 2.31939 21.3102 2.37805 21.2629C2.47671 21.1856 2.54602 21.0734 2.62602 20.9761C2.71401 20.9612 2.80467 20.9562 2.88733 20.9288C2.92199 20.9188 2.938 20.864 2.96734 20.8316C3.02066 20.7692 3.06603 20.6795 3.13803 20.6496C3.25535 20.6047 3.39934 20.6221 3.46867 20.485C3.50866 20.4052 3.56997 20.3205 3.64463 20.3155C3.85262 20.3055 3.94061 20.1684 4.04727 20.0387C4.12727 19.9415 4.29793 19.9914 4.38592 19.8942C4.44458 19.8318 4.48727 19.7545 4.54593 19.6947C4.56993 19.6698 4.62058 19.6573 4.66057 19.6498C4.87923 19.6124 5.10054 19.585 5.31919 19.5451C5.35385 19.5376 5.38588 19.5003 5.41254 19.4703C5.46854 19.4055 5.50316 19.3158 5.57249 19.2734C5.64182 19.231 5.74046 19.231 5.82579 19.2185C6.10044 19.1811 6.12179 19.1911 6.24712 18.9792C6.34844 18.8072 6.59646 18.9293 6.67912 18.7398C6.72711 18.6302 6.81507 18.5404 6.97239 18.5279C7.19371 18.5105 7.41235 18.4631 7.63367 18.4307C7.83099 18.4008 7.82833 18.4008 8.04165 18.1689C8.13764 18.0642 8.279 18.0792 8.40432 18.0592C8.53764 18.0393 8.66029 18.0094 8.72428 17.8847C8.78828 17.7626 8.90559 17.7227 9.04158 17.7052C9.1669 17.6878 9.30826 17.7002 9.40692 17.6005C9.6469 17.3612 9.64424 17.3587 9.81223 17.3337C10.0762 17.2939 10.3402 17.254 10.6042 17.2116C10.7802 17.1842 10.9641 17.1792 11.1295 17.1243C11.2494 17.0844 11.3028 16.9448 11.3801 16.8476C11.5987 16.8102 11.8174 16.7728 12.036 16.7379C12.3427 16.688 12.652 16.6432 12.9613 16.5958C13.0946 16.5011 13.1133 16.2916 13.3373 16.2817C13.4706 16.2767 13.6013 16.2443 13.7346 16.2243C13.9559 16.1894 14.1746 16.1445 14.3959 16.1271C14.5639 16.1146 14.5932 15.98 14.6812 15.8952C14.7105 15.8653 14.7372 15.8229 14.7718 15.8155C15.1185 15.7456 15.4758 15.7307 15.8144 15.6285C15.8491 15.6185 15.8811 15.5661 15.8891 15.5287C15.8944 15.5088 15.8491 15.4714 15.8197 15.454C15.7851 15.434 15.7398 15.4141 15.7024 15.4191C14.6012 15.5861 13.5 15.7556 12.3987 15.9227C12.244 15.9476 12.244 15.9451 11.8681 16.2193C11.8361 16.2418 11.7987 16.2667 11.7587 16.2742C11.5827 16.3041 11.4041 16.3216 11.2307 16.359C11.0894 16.3889 10.9721 16.3589 10.8708 16.2692C10.7988 16.2044 10.7241 16.1844 10.6335 16.1894C10.5321 16.1969 10.4655 16.2243 10.4068 16.2916C10.3295 16.3839 10.2895 16.5035 10.1269 16.5285C9.37757 16.6357 8.62825 16.7553 7.88164 16.87C7.77764 16.8351 7.72699 16.7828 7.75365 16.7204C7.76965 16.6831 7.80166 16.6332 7.83366 16.6282C8.1403 16.5759 8.4496 16.531 8.75625 16.4811C8.79891 16.4736 8.85757 16.4786 8.88157 16.4537C8.99889 16.3415 9.0416 16.1595 9.26292 16.147C9.39091 16.1395 9.52155 16.1022 9.64421 16.0673C9.67887 16.0573 9.71088 16.0049 9.71888 15.9675C9.72154 15.9476 9.67887 15.9102 9.64688 15.8927C9.52955 15.8204 9.39359 15.9077 9.27626 15.8578C9.23627 15.8404 9.18023 15.8155 9.17223 15.7855C9.1669 15.7581 9.21224 15.7132 9.24424 15.6858C9.27357 15.6609 9.31354 15.6384 9.35354 15.631C9.70551 15.5736 10.0575 15.5138 10.4095 15.4689C10.5535 15.4515 10.6548 15.3891 10.7188 15.2744C10.7668 15.1897 10.8255 15.1448 10.9161 15.1324C11.5321 15.0401 12.148 14.9379 12.7666 14.8531C12.9213 14.8332 13.0013 14.7509 13.0653 14.6437C13.116 14.5589 13.1747 14.529 13.2733 14.5141C14.1559 14.3844 15.0332 14.2398 15.9158 14.1152C16.0784 14.0927 16.1264 13.9855 16.2091 13.8933C16.2384 13.8609 16.2571 13.821 16.2944 13.801C16.3317 13.7811 16.3797 13.7836 16.425 13.7786C17.129 13.6714 17.833 13.5567 18.5396 13.457C18.7049 13.4346 18.7369 13.3099 18.8222 13.2226C18.8515 13.1952 18.8782 13.1503 18.9129 13.1429C19.4409 13.0581 19.9688 12.9783 20.4968 12.8961C20.8487 12.8412 21.2007 12.7864 21.5527 12.734C21.726 12.7091 21.726 12.7066 21.9607 12.4697C21.9873 12.4423 22.0247 12.4099 22.0593 12.4024C23.0726 12.2428 24.0832 12.0908 25.0964 11.9337C25.1818 11.9213 25.2431 11.8639 25.2857 11.7791C25.3284 11.6944 25.3898 11.637 25.4724 11.6246C26.2644 11.4999 27.0563 11.3777 27.8509 11.2606C27.9949 11.2406 28.0962 11.1808 28.1602 11.0686C28.2082 10.9838 28.2669 10.939 28.3575 10.9265C29.1495 10.8068 29.9415 10.6797 30.7361 10.565C30.8881 10.5425 30.9627 10.4578 31.0374 10.3581C31.064 10.3232 31.0854 10.2658 31.1174 10.2608C31.512 10.191 31.904 10.1187 32.3013 10.0714C32.4666 10.0514 32.5226 9.9467 32.5893 9.84697C32.6426 9.76719 32.7039 9.73978 32.8053 9.72981C33.0266 9.70737 33.2452 9.665 33.4612 9.62262C33.4932 9.61514 33.5332 9.56029 33.5359 9.52539C33.5412 9.46056 33.4799 9.41568 33.3785 9.39324C32.3226 9.55529 31.264 9.71733 30.2081 9.87938C30.0348 9.90681 30.0348 9.90682 29.8001 10.1437C29.7735 10.1711 29.7361 10.2035 29.6988 10.211C28.6855 10.3681 27.675 10.5226 26.6617 10.6797C26.5764 10.6922 26.515 10.7495 26.4724 10.8343C26.4297 10.919 26.3683 10.9764 26.2857 10.9888C25.3177 11.1384 24.3498 11.2905 23.3792 11.4326C23.2352 11.4526 23.1339 11.5099 23.07 11.6246C23.022 11.7093 22.9633 11.7542 22.8726 11.7667C21.9474 11.9063 21.0247 12.0534 20.0968 12.188C20.0035 12.2005 19.9342 12.1282 19.9395 12.0608C19.9422 12.0259 19.9821 11.9686 20.0141 11.9636C20.4967 11.8814 20.9768 11.7966 21.4621 11.7343C21.6247 11.7143 21.6727 11.6046 21.7553 11.5124C21.782 11.48 21.8033 11.4376 21.838 11.4201C21.8753 11.4002 21.9233 11.4027 21.9687 11.3977C23.1126 11.2207 24.2565 11.0412 25.4031 10.8742C25.5684 10.8492 25.6004 10.727 25.6857 10.6398C25.715 10.6099 25.7417 10.565 25.7764 10.56C26.1284 10.5002 26.4803 10.4478 26.8323 10.3955C27.4483 10.3007 28.0642 10.206 28.6828 10.1113C28.8615 10.0838 28.8615 10.0838 29.0908 9.84947C29.1175 9.82204 29.1548 9.78717 29.1895 9.78218C30.8187 9.53038 32.448 9.27857 34.0772 9.02926C34.1625 9.0168 34.2238 8.95946 34.2665 8.87469C34.3092 8.79242 34.3705 8.73258 34.4531 8.71763C36.6556 8.37856 38.8555 8.03949 41.058 7.70541C41.202 7.68298 41.3033 7.63062 41.3673 7.51344C41.4126 7.42868 41.4739 7.38381 41.5646 7.36885C43.9858 6.99738 46.4069 6.62592 48.8308 6.25195C50.46 6.00264 52.0892 5.74835 53.7184 5.50402C53.8678 5.48159 53.9477 5.40429 54.0224 5.30207C54.0464 5.26717 54.0704 5.20982 54.1024 5.20483C54.4517 5.14251 54.801 5.08518 55.1503 5.02783C55.2596 5.09515 55.3689 5.15998 55.4783 5.22729C55.5609 5.13256 55.641 5.03532 55.7236 4.94058C56.2516 4.86828 56.7715 4.75609 57.3048 4.72119C57.3395 4.7187 57.3768 4.76607 57.4141 4.791C57.6621 4.94807 57.8035 4.9356 57.9608 4.72618C58.0168 4.65139 58.0648 4.58407 58.1501 4.57161C58.4141 4.52673 58.6808 4.49681 58.9421 4.44446C59.0834 4.41703 59.2007 4.44196 59.302 4.53171C59.374 4.59653 59.4487 4.62397 59.5367 4.60901C60.022 4.53422 60.5046 4.46191 60.9899 4.38213C61.0246 4.37715 61.0565 4.33475 61.0832 4.30483C61.1392 4.24001 61.1872 4.17022 61.2406 4.10291C61.3126 4.14529 61.3926 4.1777 61.4512 4.23255C61.5259 4.29737 61.5952 4.29736 61.6965 4.27991C63.6324 3.97824 65.5709 3.68406 67.5068 3.3799C67.6721 3.35497 67.7441 3.45969 67.8561 3.51454C67.8934 3.53448 67.9308 3.5594 67.9707 3.56439C68.0134 3.56938 68.0587 3.55443 68.1014 3.54695C69.5546 3.32257 71.0079 3.10067 72.4611 2.87629C72.6531 2.84638 72.6531 2.84638 72.9384 3.00095C72.9731 3.02089 73.0184 3.04333 73.0557 3.03585C73.717 2.93862 74.3783 2.83392 75.0369 2.7342C75.1222 2.72173 75.1943 2.76162 75.2716 2.81896C75.4236 2.93115 75.4342 2.93116 75.5462 2.76661C75.5995 2.68933 75.6555 2.64193 75.7435 2.6195C75.8395 2.59457 75.9169 2.60207 75.9915 2.64695C76.0982 2.70928 76.1755 2.81397 76.3382 2.78655C77.0421 2.66937 77.7487 2.57215 78.45 2.45248C78.61 2.42506 78.6954 2.50982 78.802 2.57214C78.8393 2.59458 78.874 2.62949 78.914 2.63697C78.954 2.64445 79.002 2.62698 79.0446 2.6195C79.9246 2.48487 80.8072 2.35276 81.6844 2.20816C81.8497 2.18074 81.9218 2.28792 82.0338 2.34277C82.0711 2.36271 82.1137 2.39763 82.1484 2.39265C82.6764 2.31536 83.207 2.23307 83.735 2.15079C83.9243 2.12088 83.9243 2.12337 84.2122 2.27545C84.2469 2.29539 84.2923 2.31534 84.3296 2.31036C84.9456 2.21811 85.5642 2.12337 86.1801 2.02864C86.3695 1.99872 86.3695 1.99872 86.9161 2.12836C86.9561 2.13834 86.9987 2.15332 87.0387 2.14833C87.7427 2.04113 88.4493 1.9364 89.1532 1.82172C89.2946 1.79928 89.4119 1.81922 89.5132 1.90897C89.5852 1.97379 89.6599 2.00123 89.7479 1.98627C90.5398 1.86411 91.3344 1.74694 92.1237 1.6173C92.2757 1.59237 92.3743 1.64719 92.481 1.71949C92.5157 1.74442 92.5504 1.77934 92.5904 1.78931C92.6304 1.79928 92.6757 1.7893 92.7183 1.78182C93.5103 1.65966 94.3049 1.54498 95.0942 1.41285C95.2541 1.38542 95.3395 1.47018 95.4461 1.53251C95.4835 1.55495 95.5235 1.59983 95.5555 1.59733C95.8648 1.55495 96.1741 1.51757 96.4807 1.45524C96.646 1.42034 96.718 1.535 96.83 1.58985C96.8674 1.6073 96.91 1.64471 96.9447 1.63973C97.606 1.5425 98.2673 1.44029 98.9259 1.33558C99.0192 1.32062 99.0885 1.34304 99.1632 1.40786C99.2619 1.49512 99.3765 1.53002 99.5205 1.5026C99.8272 1.44525 100.136 1.40538 100.446 1.35801C100.627 1.33058 100.627 1.33059 101.182 1.46023C101.222 1.47021 101.264 1.48515 101.304 1.48017C101.832 1.40039 102.363 1.32311 102.888 1.23585C103.03 1.21092 103.147 1.23335 103.248 1.3231C103.32 1.38792 103.392 1.41536 103.483 1.4004C103.968 1.32561 104.451 1.25081 104.936 1.17602C105.112 1.14859 105.288 1.10121 105.464 1.10121C105.592 1.1037 105.685 1.22337 105.8 1.2832C105.832 1.30065 105.885 1.28073 105.928 1.27575C106.544 1.18101 107.163 1.09374 107.776 0.986539C107.936 0.959115 108.021 1.04388 108.128 1.1062C108.165 1.12864 108.205 1.17352 108.237 1.17103C108.459 1.1436 108.677 1.1062 108.899 1.07379C109.162 1.0339 109.429 1.00398 109.69 0.949136C109.904 0.904261 109.984 1.12115 110.154 1.12863C110.285 1.13611 110.418 1.09374 110.549 1.07379C110.813 1.0339 111.077 0.989031 111.341 0.954127C111.434 0.941662 111.506 0.901755 111.536 0.812004C111.541 0.794552 111.496 0.757172 111.466 0.734734C111.112 0.480438 111.112 0.480426 110.754 0.535274C110.533 0.570178 110.314 0.605087 110.093 0.635004C110.056 0.63999 110.013 0.620047 109.976 0.605088C109.869 0.562706 109.88 0.512849 109.97 0.423097C110.061 0.333346 110.13 0.223659 110.208 0.121443C110.317 0.186263 110.424 0.25106 110.533 0.315881C110.621 0.303415 110.709 0.288479 110.797 0.276013C111.237 0.211193 111.677 0.143874 112.117 0.0840401C112.149 0.0790539 112.189 0.128923 112.226 0.153854C112.333 0.226154 112.429 0.288464 112.584 0.26104C112.978 0.18874 113.376 0.136385 113.77 0.074058C113.943 0.046634 113.944 0.0466364 114.247 0.201208C114.282 0.21866 114.327 0.238606 114.365 0.23362C114.762 0.176279 115.157 0.113958 115.554 0.0541242C115.639 0.0416588 115.722 0.0740678 115.783 0.146367C115.807 0.176285 115.802 0.226137 115.903 0.635004C116.218 0.966586 116.434 0.931699 116.653 0.901782C116.746 0.889317 116.829 0.876839 116.89 0.826977C116.922 0.799553 116.962 0.759658 116.962 0.727247C116.962 0.702316 116.903 0.66242 116.866 0.657433C116.602 0.607572 116.351 0.712296 116.093 0.734734C115.973 0.744706 115.869 0.657447 115.847 0.51534C115.842 0.475451 115.834 0.433071 115.826 0.393181C115.818 0.353292 115.813 0.310912 115.805 0.271022C115.701 0.258557 115.639 0.303425 115.594 0.38819C115.557 0.457997 115.503 0.537776 115.431 0.575172C115.359 0.615062 115.261 0.607596 115.173 0.620061C115.087 0.632527 114.994 0.664933 114.914 0.647482C114.834 0.627537 114.77 0.555225 114.695 0.510349C114.661 0.487912 114.618 0.455514 114.583 0.4605C114.277 0.502882 113.973 0.545249 113.669 0.600097C113.509 0.630014 113.429 0.52532 113.328 0.4605C113.248 0.410638 113.168 0.423087 113.154 0.53777C113.12 0.81201 113.242 0.926686 113.514 0.874331C113.738 0.829456 113.941 0.822 114.117 0.99153C114.141 1.01397 114.197 1.02394 114.231 1.01895C114.45 0.989033 114.666 0.951633 114.885 0.921716C114.925 0.91673 114.967 0.926686 115.005 0.936659C115.549 1.07129 115.549 1.07379 115.733 1.04388C115.821 1.02892 115.906 1.01645 115.898 0.6375C116.066 0.231125 116.333 0.203706 116.591 0.143872C116.759 0.106476 116.831 0.216177 116.941 0.273518C116.978 0.293462 117.018 0.333345 117.053 0.328358C117.626 0.246086 118.197 0.158816 118.767 0.0665714C118.863 0.0516129 118.932 0.0665739 119.007 0.131394C119.103 0.213666 119.21 0.266032 119.362 0.236115C119.666 0.176281 119.975 0.138893 120.284 0.0890312C120.442 0.0641003 120.442 0.0640747 120.759 0.218647C120.794 0.236098 120.839 0.256044 120.876 0.251058C121.186 0.208675 121.492 0.156336 121.799 0.111461C121.884 0.098995 121.962 0.133895 122.028 0.201208C122.095 0.268522 122.175 0.303421 122.258 0.290956C122.567 0.24608 122.874 0.196234 123.18 0.151359C123.218 0.146372 123.263 0.163823 123.298 0.181274C123.623 0.335846 123.623 0.335821 123.772 0.31089C123.991 0.273493 124.215 0.256061 124.431 0.206199C124.641 0.156337 124.751 0.300925 124.895 0.380704C125.289 0.323363 125.687 0.276006 126.079 0.206199C126.239 0.176282 126.324 0.258547 126.431 0.323367C126.468 0.345805 126.505 0.393179 126.54 0.390686C126.673 0.380713 126.804 0.353294 126.935 0.33335C127.065 0.313405 127.199 0.293462 127.329 0.273518C127.479 0.345817 127.577 0.515345 127.791 0.458004C127.919 0.423101 128.055 0.415622 128.185 0.395677C128.316 0.375732 128.449 0.35579 128.58 0.335845C128.668 0.32338 128.758 0.315889 128.844 0.293451C129.001 0.256055 129.078 0.378231 129.19 0.433079C129.228 0.450531 129.27 0.480429 129.305 0.475442C129.569 0.440539 129.836 0.410624 130.094 0.353283C130.294 0.308408 130.43 0.38321 130.572 0.48792C130.601 0.510358 130.652 0.522822 130.689 0.517836C130.998 0.475453 131.305 0.423084 131.612 0.378208C131.694 0.365743 131.774 0.405631 131.841 0.470451C131.91 0.537765 131.988 0.570199 132.073 0.557734C132.38 0.512858 132.689 0.462982 132.996 0.418106C133.033 0.41312 133.078 0.433068 133.113 0.453013C133.411 0.607585 133.411 0.61008 133.587 0.580163C133.63 0.572684 133.675 0.567678 133.718 0.560199C133.937 0.525296 134.163 0.512847 134.377 0.453013C134.622 0.3857 134.801 0.470468 134.974 0.612575C135.193 0.582658 135.417 0.565202 135.63 0.51534C135.79 0.477944 135.875 0.572677 135.982 0.635004C136.019 0.657442 136.059 0.702318 136.091 0.697331C136.401 0.654949 136.71 0.617566 137.014 0.555238C137.179 0.520335 137.251 0.632504 137.363 0.689845C137.401 0.70979 137.44 0.744711 137.475 0.739725C137.651 0.71978 137.827 0.689849 138.003 0.662424C138.208 0.630014 138.208 0.632505 138.48 0.784584C138.608 0.856883 138.736 0.79954 138.862 0.782088C138.995 0.762143 139.12 0.74719 139.227 0.849407C139.294 0.914227 139.374 0.954118 139.456 0.944145C139.632 0.921707 139.811 0.899281 139.984 0.861884C140.123 0.831967 140.243 0.851901 140.344 0.944145C140.416 1.00897 140.491 1.0414 140.579 1.02644C140.974 0.966603 141.371 0.904252 141.766 0.846911C141.8 0.841925 141.848 0.864371 141.88 0.886809C141.955 0.931685 142.027 0.981536 142.099 1.0314C142.272 1.00896 142.451 0.999013 142.621 0.96411C142.803 0.929206 142.968 0.916737 143.109 1.05386C143.139 1.08377 143.181 1.12613 143.216 1.12364C143.349 1.11367 143.48 1.08874 143.611 1.0688C143.741 1.04886 143.875 1.02891 144.005 1.00897C144.157 1.0713 144.253 1.2508 144.467 1.19345C144.595 1.15855 144.731 1.15107 144.861 1.13113C144.992 1.11118 145.125 1.08875 145.256 1.0713C145.299 1.06631 145.347 1.05384 145.384 1.06381C145.424 1.07378 145.459 1.10869 145.493 1.13362C145.6 1.20592 145.699 1.27823 145.851 1.23585C145.979 1.20094 146.115 1.19346 146.245 1.17103C146.424 1.1436 146.424 1.14361 146.72 1.30067C146.84 1.36549 146.976 1.28073 147.09 1.33558C147.168 1.37297 147.234 1.43529 147.309 1.47767C147.341 1.49512 147.392 1.50259 147.429 1.4976C147.605 1.47517 147.784 1.45274 147.957 1.41534C148.098 1.38543 148.216 1.41534 148.314 1.50509C148.386 1.56991 148.458 1.59735 148.549 1.58239C148.989 1.51259 149.429 1.45273 149.866 1.37545C150.016 1.34802 150.136 1.39042 150.218 1.48017C150.36 1.63474 150.56 1.45275 150.706 1.5774C150.797 1.65469 150.888 1.74444 151.053 1.70705C151.357 1.64223 151.666 1.6073 151.973 1.56243C152.082 1.62974 152.191 1.69707 152.303 1.76438C152.479 1.73696 152.655 1.70952 152.831 1.68459C152.962 1.66464 153.095 1.64221 153.226 1.62476C153.269 1.61977 153.314 1.60979 153.354 1.62226C153.394 1.63473 153.426 1.66714 153.463 1.69207C153.647 1.81424 153.647 1.81674 153.951 1.76688C154.082 1.74444 154.207 1.72948 154.317 1.82921C154.418 1.92145 154.538 1.93889 154.677 1.91147C154.938 1.86161 155.202 1.82421 155.469 1.78931C155.551 1.77684 155.629 1.81923 155.698 1.88405C155.802 1.98626 155.93 1.97629 156.061 1.94887C156.234 1.91397 156.404 1.87907 156.551 2.01868C156.58 2.0486 156.626 2.09096 156.658 2.08847C156.876 2.06852 157.098 2.05357 157.311 2.00621C157.524 1.95884 157.628 2.1134 157.775 2.1882C157.994 2.15579 158.215 2.12337 158.434 2.09096C158.476 2.08348 158.527 2.06106 158.564 2.07352C158.722 2.12588 158.812 2.31286 159.028 2.25552C159.154 2.2231 159.29 2.21314 159.42 2.20567C159.455 2.20317 159.5 2.24553 159.524 2.27794C159.538 2.2954 159.524 2.34276 159.508 2.36769C159.46 2.4375 159.402 2.50234 159.359 2.57464C159.354 2.58461 159.404 2.62947 159.434 2.64941C159.506 2.69429 159.588 2.68683 159.684 2.66688C159.767 2.64943 159.852 2.68433 159.911 2.75912C159.935 2.78904 159.927 2.8389 159.876 3.00344C159.876 3.1256 159.932 3.07074 159.951 2.99097C159.98 2.87628 159.924 2.83889 159.818 2.90122C159.743 2.94609 159.706 3.01092 159.724 3.06328C159.735 3.0907 159.786 3.1256 159.876 3.00344C160.111 2.85386 160.287 2.82645 160.463 2.79902C160.508 2.79154 160.562 2.7666 160.594 2.78155C160.708 2.84139 160.815 2.9137 160.927 2.98101C161.055 2.96606 161.175 2.92864 161.3 3.02587C161.476 3.16299 161.484 3.15053 161.655 3.12311C161.743 3.10815 161.831 3.0957 161.919 3.08324C162.007 3.07077 162.076 3.10816 162.153 3.1655C162.311 3.28268 162.324 3.28266 162.428 3.12311C162.489 3.02588 162.532 2.99347 162.609 3.03835C162.865 3.19043 162.868 3.20039 163.087 3.15552C163.268 3.11812 163.439 3.10815 163.572 3.25026C163.663 3.34998 163.692 3.32755 163.764 3.22284C163.956 2.9461 164.044 2.95108 164.404 3.15053C164.572 3.24526 164.745 3.14306 164.916 3.13059C165.06 3.12062 165.161 3.18044 165.172 3.33751C165.18 3.43474 165.204 3.50456 165.3 3.53697C165.337 3.54943 165.383 3.56688 165.42 3.56189C165.641 3.53198 165.86 3.49707 166.081 3.46216C166.193 3.44471 166.254 3.32756 166.233 3.17299C166.209 3.00844 166.252 2.94859 166.412 2.90122C166.508 2.87379 166.585 2.8788 166.662 2.92368C166.748 2.97354 166.724 3.01841 166.649 3.10816C166.47 3.32756 166.492 3.46216 166.721 3.61424C166.801 3.66659 166.865 3.71398 166.884 3.79127C166.894 3.83116 166.884 3.88351 166.908 3.91343C167.038 4.08047 167.22 4.18768 167.422 4.26746C167.617 4.20015 167.75 4.31231 167.9 4.40207C168.017 4.47187 168.156 4.41205 168.281 4.38712C168.422 4.3597 168.54 4.37963 168.641 4.47188C168.713 4.5367 168.788 4.56661 168.876 4.55414C169.052 4.52672 169.23 4.50927 169.404 4.46938C169.553 4.43448 169.665 4.48435 169.758 4.56911C169.876 4.67632 170.006 4.604 170.129 4.61896C170.294 4.63641 170.377 4.85829 170.593 4.79846C170.721 4.76356 170.854 4.75109 170.987 4.74112C171.022 4.73863 171.065 4.78102 171.094 4.81094C171.235 4.94806 171.401 4.94057 171.582 4.90068C171.707 4.87326 171.83 4.84834 171.953 4.94308C172.155 5.10264 172.379 5.24226 172.593 5.38935C172.622 5.50403 172.601 5.63863 172.753 5.70595C172.833 5.74085 172.907 5.79323 172.969 5.85057C173.043 5.91788 173.113 5.93534 173.209 5.91789C173.382 5.88298 173.563 5.87548 173.734 5.8306C173.891 5.79071 173.99 5.87301 174.086 5.9503C174.163 6.01262 174.235 6.04253 174.329 5.99765C174.425 5.95527 174.494 5.98268 174.571 6.05C174.681 6.14224 174.689 6.13228 175.051 6.15971C175.089 6.1622 175.134 6.19958 175.155 6.23199C175.166 6.24944 175.142 6.29933 175.123 6.32426C175.099 6.35418 175.062 6.38906 175.027 6.39654C174.633 6.46136 174.235 6.5187 173.841 6.58352C173.801 6.591 173.758 6.60847 173.729 6.6334C173.697 6.66083 173.657 6.6982 173.657 6.7331C173.657 6.75803 173.71 6.78796 173.747 6.80541C173.865 6.86275 174.003 6.7755 174.118 6.84032C174.195 6.8827 174.259 6.94252 174.337 6.98241C174.369 6.99986 174.419 6.99738 174.459 6.99239C174.593 6.97494 174.723 6.95002 174.857 6.93506C174.894 6.93256 174.937 6.95751 174.971 6.97745C175.227 7.12704 175.227 7.12703 175.449 7.09462C175.536 7.08215 175.63 7.04475 175.712 7.05971C175.792 7.07467 175.862 7.14198 175.934 7.18437C176.083 7.27412 176.224 7.36137 176.235 7.55583C176.24 7.63063 176.328 7.69544 176.416 7.70042C176.502 7.70541 176.592 7.67801 176.68 7.66305C176.888 7.63313 176.888 7.63313 177.158 7.78521C177.232 7.82759 177.312 7.83257 177.408 7.80764C177.446 7.79767 177.491 7.80765 177.531 7.82012C177.662 7.85751 177.662 7.90487 177.576 7.99462C177.456 8.12676 177.467 8.13923 177.803 8.25142C177.931 8.2938 178.03 8.37358 178.136 8.44339C178.31 8.55558 178.307 8.55556 178.192 8.70265C178.166 8.73506 178.142 8.76997 178.115 8.80488C178.038 8.90211 177.976 9.00681 177.816 9.01678C177.64 9.02676 177.464 9.06666 177.288 9.09408C177.118 9.12151 177.072 9.18132 177.088 9.35085C177.107 9.55528 177.142 9.57773 177.448 9.57523C177.536 9.57523 177.614 9.59517 177.68 9.66249C177.648 9.74227 177.59 9.80459 177.504 9.81955C177.286 9.85695 177.064 9.88937 176.846 9.92178C176.67 9.9492 176.494 9.97662 176.318 10.004C176.208 10.0215 176.139 10.1511 176.168 10.2957C176.184 10.378 176.198 10.4603 176.211 10.5426C176.24 10.7071 176.296 10.7495 176.475 10.742C176.52 10.7395 176.563 10.7196 176.606 10.7245C176.779 10.742 176.862 10.9489 177.07 10.9065C177.243 10.8716 177.424 10.8642 177.595 10.8193C177.752 10.7794 177.84 10.8692 177.95 10.9365C177.987 10.9589 178.027 11.0063 178.059 11.0038C178.28 10.9763 178.502 10.9489 178.718 10.9016C178.819 10.8816 178.88 10.8966 178.96 10.9564C179.152 11.101 179.158 11.0935 179.443 11.0487C179.651 11.0138 179.654 11.0187 179.92 11.1708C179.995 11.2132 180.075 11.2132 180.171 11.1933C180.296 11.1683 180.427 11.1284 180.557 11.1658C180.597 11.1758 180.648 11.2057 180.661 11.2381C180.669 11.2606 180.632 11.3154 180.6 11.3329C180.366 11.4625 180.091 11.4401 179.835 11.4924C179.755 11.5074 179.675 11.46 179.608 11.3927C179.539 11.3254 179.464 11.298 179.374 11.3104C179.198 11.3379 179.019 11.3553 178.846 11.3952C178.696 11.4301 178.592 11.3728 178.488 11.2955C178.454 11.2705 178.414 11.2232 178.379 11.2257C177.984 11.2755 177.587 11.3254 177.195 11.3952C177.038 11.4251 176.947 11.3454 176.84 11.278C176.803 11.2556 176.766 11.2082 176.731 11.2107C176.598 11.2207 176.467 11.2481 176.334 11.2681C175.848 11.3428 175.366 11.4176 174.881 11.4874C174.849 11.4924 174.809 11.4401 174.771 11.4176C174.699 11.3728 174.625 11.3304 174.55 11.288C174.417 11.3079 174.286 11.3329 174.153 11.3478C174.057 11.3578 173.971 11.3927 173.958 11.4874C173.95 11.5498 174.038 11.6071 174.131 11.6021C174.222 11.5971 174.313 11.5672 174.387 11.5996C174.758 11.7592 174.758 11.7617 174.99 11.7293C175.193 11.6994 175.171 11.6744 175.35 11.8115C175.427 11.8714 175.496 11.9063 175.584 11.8913C175.803 11.8564 176.024 11.8215 176.246 11.7916C176.28 11.7866 176.326 11.8116 176.36 11.8315C176.622 11.9811 176.622 11.9861 176.838 11.9487C177.12 11.9038 177.131 11.8913 177.32 12.0434C177.451 12.1481 177.571 12.0758 177.696 12.0708C177.84 12.1681 177.998 12.2553 178.128 12.365C178.283 12.4947 178.446 12.4722 178.622 12.4348C178.752 12.4074 178.88 12.3974 178.987 12.4996C179.088 12.5944 179.211 12.6044 179.35 12.5794C179.475 12.557 179.603 12.5096 179.734 12.5645C179.768 12.5794 179.821 12.6168 179.819 12.6393C179.816 12.6742 179.781 12.724 179.747 12.739C179.502 12.8412 179.232 12.8387 178.974 12.8861C178.939 12.8935 178.894 12.8661 178.859 12.8462C178.784 12.8013 178.712 12.749 178.64 12.7016C178.51 12.7165 178.376 12.7215 178.248 12.7514C178.15 12.7739 178.075 12.7714 178.003 12.7116C177.936 12.6567 177.864 12.5894 177.784 12.5719C177.704 12.5545 177.611 12.5919 177.523 12.6068C177.435 12.6218 177.334 12.6143 177.264 12.6542C177.195 12.6941 177.152 12.7814 177.107 12.8512C177.056 12.9284 176.987 12.9534 176.886 12.9609C176.792 12.9684 176.718 12.9584 176.648 12.8886C176.619 12.8586 176.579 12.8362 176.539 12.8163C176.502 12.7988 176.459 12.7714 176.424 12.7764C176.027 12.8337 175.632 12.8961 175.235 12.9559C175.038 12.9858 175.041 12.9858 174.63 12.8387C174.593 12.8262 174.547 12.8088 174.51 12.8138C174.289 12.8437 174.07 12.8786 173.849 12.9135C173.625 12.9484 173.627 12.9434 173.246 12.7863C173.177 12.7564 173.075 12.7963 172.993 12.7913C172.819 12.7789 172.734 12.5695 172.531 12.6093C172.358 12.6442 172.177 12.6517 172.003 12.6966C171.846 12.7365 171.755 12.6492 171.649 12.5819C171.611 12.5595 171.571 12.5096 171.539 12.5146C171.142 12.5695 170.747 12.6318 170.22 12.6393C170.089 12.6393 170.148 12.6916 170.233 12.7091C170.356 12.7365 170.396 12.6841 170.329 12.5844C170.281 12.5146 170.212 12.4797 170.156 12.4971C170.126 12.5071 170.089 12.5545 170.22 12.6393C170.358 12.734 170.35 12.7863 170.374 12.8163C170.433 12.8886 170.516 12.9185 170.601 12.9085C170.734 12.891 170.865 12.8661 170.998 12.8512C171.035 12.8462 171.081 12.8636 171.115 12.8836C171.409 13.0381 171.411 13.0481 171.723 12.9883C171.822 12.9708 171.894 12.9708 171.971 13.0182C172.078 13.083 172.155 13.1927 172.318 13.1578C172.534 13.1104 172.755 13.083 172.977 13.0556C173.011 13.0506 173.049 13.0955 173.089 13.1154C173.198 13.1753 173.278 13.2875 173.441 13.2401C173.566 13.2027 173.702 13.1927 173.835 13.1852C173.87 13.1827 173.923 13.2226 173.939 13.255C173.971 13.3124 173.931 13.3797 173.841 13.4271C173.803 13.447 173.753 13.442 173.71 13.4495C173.534 13.4769 173.358 13.5068 173.182 13.5293C173.089 13.5417 173.001 13.5792 172.99 13.6714C172.982 13.7337 173.078 13.7886 173.169 13.7836C173.302 13.7761 173.435 13.7562 173.563 13.7237C173.79 13.6689 173.987 13.6838 174.171 13.8409C174.302 13.9506 174.294 13.9107 174.433 14.2348C174.467 14.3171 174.571 14.3246 174.662 14.3196C174.881 14.3071 174.982 14.3445 174.963 14.4218C174.939 14.5166 174.862 14.5465 174.763 14.5589C174.587 14.5789 174.411 14.6113 174.235 14.6387C174.193 14.6462 174.145 14.6611 174.105 14.6562C174.065 14.6512 174.027 14.6213 173.993 14.5988C173.918 14.5515 173.854 14.4791 173.774 14.4617C173.694 14.4442 173.601 14.4816 173.513 14.4966C173.425 14.5091 173.331 14.5465 173.251 14.529C173.171 14.5116 173.105 14.4368 173.033 14.3919C172.998 14.3695 172.955 14.3345 172.921 14.337C172.745 14.357 172.569 14.3894 172.393 14.4143C172.177 14.4467 172.177 14.4468 171.915 14.2922C171.841 14.2473 171.763 14.2498 171.665 14.2697C171.451 14.3096 171.449 14.3021 171.059 14.1575C171.022 14.1426 170.977 14.1251 170.939 14.1326C170.542 14.19 170.148 14.2523 169.753 14.3121C169.414 14.3645 169.414 14.3645 169.228 14.6138C169.089 14.7983 169.086 14.7983 169.222 14.883C169.332 14.9528 169.43 15.0551 169.55 15.0925C169.662 15.1274 169.801 15.0152 169.924 15.1299C169.985 15.1872 170.065 15.2495 170.142 15.2595C170.265 15.272 170.396 15.1997 170.513 15.3094C170.572 15.3642 170.66 15.4216 170.734 15.4241C170.865 15.429 170.998 15.3891 171.129 15.3717C171.169 15.3667 171.214 15.3667 171.251 15.3792C171.291 15.3941 171.326 15.424 171.361 15.449C171.467 15.5337 171.582 15.5736 171.721 15.5312C171.947 15.4614 172.15 15.4963 172.326 15.6559C172.35 15.6783 172.409 15.6808 172.446 15.6709C172.542 15.6459 172.625 15.6434 172.697 15.6908C172.726 15.7107 172.769 15.7456 172.763 15.7681C172.755 15.8055 172.723 15.8553 172.689 15.8678C172.438 15.9526 172.169 15.9626 171.91 16.0074C171.875 16.0124 171.833 15.98 171.798 15.9575C171.723 15.9127 171.659 15.8379 171.579 15.8204C171.499 15.803 171.406 15.8354 171.318 15.8479C171.23 15.8603 171.137 15.8977 171.057 15.8828C170.977 15.8653 170.902 15.803 170.838 15.7481C170.763 15.6858 170.692 15.6783 170.593 15.7033C170.465 15.7357 170.332 15.7407 170.201 15.7581C170.129 15.7108 170.057 15.6584 169.982 15.6135C169.948 15.5911 169.905 15.5637 169.868 15.5661C169.692 15.5861 169.516 15.616 169.34 15.6434C169.164 15.6708 169.164 15.6709 168.865 15.5163C168.83 15.4988 168.785 15.4789 168.748 15.4839C168.526 15.5138 168.308 15.5512 168.086 15.5811C168.001 15.5936 167.924 15.5587 167.854 15.4913C167.788 15.424 167.708 15.3866 167.625 15.3991C167.273 15.4515 166.921 15.5013 166.569 15.5637C166.428 15.5886 166.308 15.5661 166.212 15.4764C166.1 15.3742 165.974 15.3991 165.844 15.4191C165.548 15.4689 165.545 15.4664 165.356 15.3393C165.319 15.3143 165.281 15.267 165.247 15.2695C164.94 15.3068 164.631 15.3418 164.327 15.4016C164.167 15.434 164.081 15.3468 163.975 15.2819C163.937 15.2595 163.897 15.2121 163.865 15.2171C163.644 15.2445 163.423 15.2695 163.207 15.3193C162.991 15.3692 162.908 15.1373 162.745 15.1398C162.524 15.1423 162.305 15.1997 162.087 15.2346C161.911 15.262 161.735 15.2894 161.559 15.3168C161.383 15.3443 161.207 15.3667 161.031 15.3991C160.938 15.4165 160.868 15.3941 160.791 15.3318C160.692 15.2495 160.575 15.1847 160.468 15.1099C160.306 15.0027 160.306 15.0027 160.108 15.0326C160.066 15.0401 160.02 15.0451 159.978 15.0526C159.655 15.1074 159.655 15.1024 159.244 14.9454C159.226 14.9379 159.178 14.9653 159.159 14.9853C159.103 15.0501 159.052 15.1199 159.002 15.1872C158.93 15.1473 158.842 15.1249 158.794 15.0675C158.658 14.9055 158.444 15.1274 158.306 14.9678C158.255 14.908 158.167 14.8556 158.087 14.8406C158.004 14.8257 157.911 14.8606 157.826 14.8756C157.604 14.913 157.604 14.9105 157.415 15.1324C157.319 15.242 157.18 15.2221 157.055 15.247C156.924 15.2744 156.799 15.2894 156.69 15.1872C156.591 15.0949 156.471 15.0725 156.33 15.1024C156.157 15.1398 155.978 15.1623 155.802 15.1847C155.765 15.1897 155.719 15.1772 155.682 15.1623C155.274 15.0152 155.274 15.0127 155.077 15.0451C154.989 15.0601 154.898 15.065 154.813 15.0875C154.669 15.1274 154.559 15.075 154.455 14.9952C154.421 14.9703 154.381 14.9229 154.346 14.9254C154.17 14.9379 153.997 14.9603 153.823 14.9828C153.69 15.0002 153.557 15.0102 153.429 15.0451C153.215 15.1024 153.111 14.9404 152.965 14.8656C152.746 14.898 152.525 14.9204 152.306 14.9653C152.205 14.9852 152.138 14.9778 152.061 14.9179C151.962 14.8432 151.871 14.7584 151.712 14.7958C151.498 14.8457 151.274 14.8631 151.056 14.893C150.909 14.8157 150.802 14.6587 150.592 14.716C150.464 14.7509 150.328 14.7584 150.197 14.7783C150.021 14.8057 149.845 14.8307 149.669 14.8606C149.48 14.8905 149.482 14.883 149.192 14.736C149.024 14.6487 148.85 14.7459 148.68 14.7609C148.546 14.7733 148.48 14.888 148.512 15.0351C148.544 15.1822 148.472 15.2969 148.349 15.3168C148.042 15.3642 147.733 15.4141 147.426 15.4564C147.389 15.4614 147.344 15.444 147.309 15.4265C146.981 15.2695 146.981 15.272 146.835 15.2944C146.616 15.3318 146.392 15.3517 146.176 15.3991C146.027 15.4315 145.917 15.3792 145.821 15.2944C145.747 15.2296 145.677 15.2146 145.581 15.2296C144.525 15.3966 143.469 15.5512 142.416 15.7232C142.259 15.7481 142.168 15.6759 142.062 15.6085C142.024 15.5861 141.99 15.5387 141.952 15.5387C141.864 15.5387 141.776 15.5612 141.688 15.5761C141.294 15.636 140.899 15.7083 140.502 15.7531C140.334 15.7731 140.288 15.8878 140.216 15.9825C140.16 16.0548 140.096 16.0847 139.998 16.0947C139.902 16.1047 139.832 16.0922 139.758 16.0274C139.662 15.9426 139.552 15.8902 139.403 15.9251C139.23 15.965 139.054 15.9825 138.875 16.0099C138.784 16.0224 138.715 16.0673 138.686 16.157C138.68 16.172 138.736 16.2094 138.768 16.2318C138.875 16.3066 138.976 16.3939 139.096 16.4462C139.219 16.4986 139.352 16.4387 139.48 16.4238C139.526 16.4188 139.568 16.4038 139.611 16.4063C139.651 16.4088 139.699 16.4213 139.728 16.4437C139.867 16.5559 140.014 16.6332 140.206 16.5659C140.371 16.5983 140.456 16.8052 140.667 16.7504C140.795 16.718 140.928 16.703 141.062 16.6905C141.096 16.688 141.134 16.7329 141.171 16.7554C141.278 16.8177 141.363 16.9174 141.523 16.875C141.694 16.8301 141.875 16.8227 142.048 16.7878C142.144 16.7678 142.213 16.7853 142.288 16.8501C142.384 16.9324 142.493 16.9947 142.643 16.9548C142.771 16.9199 142.907 16.9124 143.037 16.89C143.208 16.8625 143.208 16.865 143.512 17.0196C143.547 17.0371 143.592 17.057 143.629 17.052C143.851 17.0221 144.069 16.9847 144.291 16.9548C144.376 16.9423 144.459 16.9747 144.517 17.047C144.541 17.0769 144.533 17.1268 144.541 17.1692C144.101 17.2365 143.661 17.2939 143.224 17.3761C143.059 17.4085 142.984 17.3063 142.875 17.249C142.837 17.229 142.797 17.1867 142.763 17.1916C142.453 17.234 142.147 17.2789 141.84 17.3337C141.744 17.3512 141.672 17.3412 141.6 17.2689C141.416 17.0769 141.192 17.1817 140.984 17.2091C140.824 17.229 140.774 17.3063 140.792 17.4709C140.816 17.6653 140.912 17.7252 141.158 17.6903C141.246 17.6778 141.334 17.6603 141.422 17.6504C141.507 17.6404 141.584 17.6728 141.654 17.7401C141.72 17.8074 141.8 17.8423 141.883 17.8324C142.059 17.8099 142.237 17.7875 142.408 17.7501C142.549 17.7202 142.667 17.7451 142.765 17.8374C142.875 17.9396 143.003 17.9171 143.131 17.8947C143.429 17.8448 143.432 17.8473 143.619 17.972C143.656 17.9969 143.693 18.0443 143.728 18.0418C144.035 18.0044 144.344 17.972 144.645 17.9122C144.803 17.8822 144.893 17.962 144.997 18.0268C145.035 18.0493 145.072 18.0991 145.107 18.0941C145.328 18.0667 145.549 18.0393 145.765 17.9919C145.867 17.9695 145.928 17.9844 146.011 18.0443C146.208 18.1914 146.213 18.1864 146.493 18.139C146.579 18.124 146.672 18.0966 146.752 18.1166C146.832 18.1365 146.896 18.2088 146.971 18.2537C147.005 18.2737 147.048 18.3011 147.085 18.2961C147.261 18.2761 147.437 18.2462 147.613 18.2188C147.778 18.1914 147.778 18.1939 148.088 18.3484C148.213 18.4133 148.344 18.3584 148.469 18.3385C148.605 18.316 148.728 18.316 148.832 18.4133C148.936 18.5105 149.061 18.5055 149.194 18.4855C149.32 18.4656 149.448 18.4108 149.576 18.4781C149.869 18.6327 149.869 18.6351 150.05 18.6052C150.314 18.5628 150.576 18.5229 150.842 18.4855C150.877 18.4806 150.922 18.5105 150.957 18.5304C151.032 18.5753 151.096 18.6501 151.176 18.6675C151.256 18.6875 151.349 18.6576 151.434 18.6426C151.709 18.5952 151.728 18.5778 151.911 18.7423C152.066 18.877 152.258 18.6825 152.402 18.8371C152.485 18.9243 152.597 18.9941 152.751 18.9518C152.879 18.9169 153.013 18.9069 153.146 18.8869C153.357 18.8545 153.357 18.857 153.623 19.0066C153.658 19.0266 153.703 19.0515 153.738 19.0465C153.914 19.0265 154.093 19.0091 154.263 18.9642C154.463 18.9119 154.591 19.0066 154.741 19.0989C154.858 19.1712 154.997 19.1113 155.122 19.0864C155.258 19.0615 155.381 19.0689 155.482 19.1662C155.589 19.2659 155.714 19.2534 155.847 19.2335C155.973 19.216 156.101 19.1587 156.229 19.2285C156.503 19.3831 156.503 19.3831 156.703 19.3531C156.879 19.3257 157.055 19.2958 157.231 19.2759C157.266 19.2709 157.308 19.3033 157.343 19.3257C157.418 19.3706 157.482 19.4454 157.562 19.4629C157.642 19.4803 157.735 19.4479 157.823 19.4354C157.911 19.423 158.004 19.3856 158.084 19.4005C158.164 19.4155 158.239 19.4778 158.303 19.5327C158.378 19.5975 158.447 19.605 158.548 19.58C158.676 19.5476 158.81 19.5401 158.94 19.5227C159.012 19.5701 159.087 19.6174 159.156 19.6698C159.228 19.7246 159.306 19.7196 159.404 19.7022C159.732 19.6423 159.735 19.6498 160.01 19.8044C160.135 19.8742 160.266 19.8169 160.391 19.7994C160.524 19.7795 160.65 19.7695 160.754 19.8692C160.855 19.964 160.98 19.9764 161.114 19.9465C161.199 19.9266 161.289 19.9141 161.377 19.9066C161.417 19.9041 161.465 19.9141 161.495 19.9341C161.636 20.0388 161.775 20.1335 161.969 20.0662C162.14 20.0861 162.225 20.2906 162.431 20.2507C162.604 20.2158 162.785 20.2083 162.956 20.1634C163.113 20.1235 163.225 20.1933 163.305 20.2806C163.449 20.4352 163.652 20.2257 163.796 20.3778C163.879 20.4651 163.985 20.5349 164.145 20.4975C164.321 20.4576 164.377 20.5099 164.428 20.667C164.457 20.7568 164.452 20.8291 164.399 20.8989C164.345 20.9712 164.287 20.9587 164.201 20.8764C164.103 20.7842 163.985 20.7667 163.844 20.7867C163.705 20.8066 163.62 20.677 163.505 20.6271C163.391 20.5748 163.255 20.662 163.135 20.5947C162.852 20.4377 162.852 20.4377 162.66 20.4676C162.529 20.4875 162.393 20.4975 162.265 20.5324C162.113 20.5748 162.015 20.4975 161.911 20.4277C161.873 20.4027 161.836 20.3554 161.804 20.3579C161.497 20.3953 161.188 20.4302 160.884 20.4925C160.724 20.5249 160.639 20.4352 160.532 20.3728C160.495 20.3504 160.455 20.3055 160.423 20.3105C160.159 20.3454 159.898 20.3903 159.634 20.4327C159.583 20.5 159.527 20.5648 159.479 20.6371C159.428 20.7119 159.359 20.7443 159.258 20.7418C159.09 20.7418 158.924 20.8465 158.756 20.7144C158.583 20.5798 158.57 20.5872 158.402 20.6197C158.188 20.662 157.962 20.6521 157.762 20.7493C157.727 20.7667 157.69 20.8141 157.69 20.849C157.687 20.8714 157.743 20.9039 157.778 20.9238C157.895 20.9836 158.031 20.8964 158.148 20.9587C158.226 20.9986 158.29 21.0584 158.367 21.1008C158.399 21.1183 158.447 21.1158 158.49 21.1133C158.535 21.1108 158.578 21.0933 158.62 21.0958C158.66 21.0983 158.703 21.1133 158.735 21.1357C158.882 21.2304 159.036 21.3177 159.167 21.4299C159.295 21.5396 159.415 21.4648 159.543 21.4598C160.055 21.6343 160.055 21.6368 160.399 21.582C160.484 21.5695 160.572 21.5546 160.66 21.5571C160.698 21.5571 160.732 21.6019 160.77 21.6268C160.876 21.7016 160.978 21.769 161.127 21.7291C161.255 21.6942 161.391 21.6867 161.521 21.6642C161.697 21.6368 161.697 21.6368 161.996 21.7939C162.071 21.8338 162.151 21.8288 162.247 21.8089C162.329 21.7914 162.415 21.8288 162.473 21.9011C162.497 21.931 162.489 21.9809 162.497 22.0233C162.233 22.0632 161.967 22.0906 161.711 22.1504C161.545 22.1878 161.471 22.0806 161.361 22.0233C161.324 22.0033 161.284 21.9609 161.25 21.9659C160.988 22.0033 160.727 22.0457 160.466 22.0955C160.434 22.1005 160.394 22.1579 160.391 22.1928C160.386 22.2576 160.452 22.3199 160.548 22.3174C160.676 22.3149 160.802 22.2726 160.916 22.3748C161.012 22.4645 161.132 22.5044 161.273 22.4645C161.359 22.4421 161.45 22.4421 161.535 22.4222C161.761 22.3623 161.967 22.3748 162.137 22.5443C162.268 22.5892 162.396 22.5468 162.521 22.5244C162.615 22.5069 162.705 22.4895 162.772 22.5368C162.913 22.6365 163.052 22.7363 163.247 22.669C163.457 22.7388 163.617 22.8859 163.793 23.0055C163.876 23.0629 163.94 23.0953 164.036 23.0579C164.076 23.0429 164.124 23.0429 164.167 23.0354C164.255 23.023 164.348 22.9856 164.428 23.0005C164.508 23.018 164.575 23.0903 164.647 23.1352C164.681 23.1576 164.721 23.195 164.756 23.1925C164.889 23.18 165.02 23.1551 165.151 23.1352C165.281 23.1177 165.412 23.1003 165.542 23.0828C165.652 23.1476 165.764 23.2125 165.873 23.2773C166.049 23.2499 166.225 23.2224 166.398 23.1975C166.593 23.1676 166.593 23.1701 166.873 23.3247C166.998 23.3945 167.132 23.3496 167.252 23.3172C167.452 23.2648 167.585 23.3596 167.726 23.4593C167.756 23.4792 167.809 23.4917 167.844 23.4817C167.982 23.4468 168.102 23.4742 168.204 23.5665C168.276 23.6313 168.348 23.6612 168.436 23.6488C168.742 23.6014 169.049 23.5515 169.356 23.5091C169.393 23.5042 169.436 23.5266 169.47 23.5465C169.742 23.6986 169.745 23.7061 169.945 23.6662C170.124 23.6313 170.289 23.6163 170.43 23.7535C170.46 23.7834 170.505 23.8258 170.537 23.8233C170.755 23.7983 170.977 23.7709 171.193 23.7285C171.291 23.7086 171.361 23.7161 171.438 23.7734C171.537 23.8457 171.625 23.933 171.787 23.9006C172.238 23.8083 172.241 23.8233 172.774 23.9953C172.811 24.0077 172.862 23.9878 172.905 23.9778C172.995 23.9529 173.062 23.9878 173.142 24.0452C173.321 24.1748 173.326 24.1673 173.497 24.1399C173.627 24.1175 173.763 24.1125 173.891 24.0751C174.089 24.0202 174.219 24.1175 174.366 24.2097C174.483 24.282 174.619 24.2222 174.745 24.1997C174.881 24.1748 175.003 24.1823 175.105 24.277C175.174 24.3418 175.248 24.3767 175.336 24.3643C175.643 24.3194 175.95 24.2695 176.256 24.2247C176.294 24.2197 176.339 24.2396 176.374 24.2571C176.678 24.4116 176.678 24.4191 176.979 24.3618C177.075 24.3443 177.155 24.3393 177.227 24.3917C177.296 24.4416 177.371 24.4889 177.443 24.5363C177.574 24.5188 177.707 24.5139 177.835 24.4839C177.934 24.4615 178.003 24.4715 178.08 24.5238C178.182 24.5912 178.267 24.7083 178.427 24.651C178.51 24.6235 178.606 24.631 178.688 24.6061C178.787 24.5737 178.854 24.5936 178.931 24.6585C179.027 24.7357 179.126 24.8155 179.28 24.7756C179.451 24.7307 179.632 24.7233 179.805 24.6884C179.901 24.6684 179.968 24.6884 180.046 24.7532C180.141 24.8355 180.251 24.8878 180.4 24.8554C180.704 24.7931 180.707 24.8055 181.003 24.9626C181.077 25.0025 181.157 24.9975 181.253 24.9776C181.336 24.9601 181.421 24.9975 181.48 25.0698C181.536 25.1496 181.531 25.1994 181.536 25.2418ZM157.775 2.75663C157.687 2.76909 157.599 2.78405 157.471 2.56715C157.463 2.52976 157.468 2.48489 157.45 2.45248C157.407 2.38517 157.34 2.3378 157.26 2.33032C157.116 2.32035 156.943 2.4051 156.946 2.46992C156.948 2.52477 156.994 2.57213 157.082 2.617C157.119 2.63445 157.148 2.66438 157.183 2.68432C157.284 2.74166 157.364 2.85387 157.511 2.79653C157.498 2.71924 157.484 2.64196 157.511 2.79653C157.498 2.89126 157.538 2.95858 157.634 2.986C157.66 2.99348 157.7 2.98849 157.722 2.97353C157.804 2.91868 157.818 2.8439 157.756 2.64695C157.746 2.67936 157.754 2.73668 157.778 2.75164C157.802 2.7666 157.86 2.75415 157.89 2.7367C157.964 2.68933 158.002 2.62699 157.983 2.57464C157.972 2.54721 157.922 2.51231 157.89 2.51231C157.834 2.51231 157.783 2.56715 157.775 2.75663ZM179.336 31.669C179.142 31.7164 178.918 31.6989 178.723 31.7962C178.688 31.8136 178.654 31.8585 178.651 31.8934C178.648 31.9159 178.702 31.9483 178.734 31.9657C178.806 32.0056 178.886 31.9931 178.979 31.9807C179.12 31.9632 179.203 32.0779 179.312 32.1352C179.347 32.1527 179.392 32.1651 179.43 32.1602C179.646 32.1302 179.859 32.0979 180.075 32.063C180.112 32.0555 180.152 32.038 180.184 32.0156C180.291 31.9433 180.28 31.8959 180.176 31.8411C180.062 31.7812 179.971 31.6815 179.854 31.6341C179.686 31.5668 179.515 31.6566 179.336 31.669ZM164.193 33.489C164.063 33.5089 163.935 33.5289 163.804 33.5488C163.761 33.5563 163.716 33.5588 163.676 33.5688C163.593 33.5862 163.532 33.6386 163.492 33.7208C163.553 33.7857 163.628 33.8231 163.711 33.8156C163.841 33.8006 163.969 33.7682 164.1 33.7607C164.241 33.7508 164.324 33.863 164.433 33.9203C164.468 33.9378 164.511 33.9402 164.551 33.9427C164.748 33.9527 164.868 33.8231 164.831 33.6411C164.804 33.499 164.703 33.4142 164.58 33.4317C164.452 33.4491 164.321 33.4691 164.193 33.489ZM180.248 27.9842C180.28 27.9418 180.315 27.9119 180.331 27.8745C180.379 27.7474 180.36 27.6527 180.272 27.5529C180.165 27.4308 180.035 27.513 179.915 27.5255C179.886 27.528 179.854 27.5804 179.838 27.6128C179.827 27.6352 179.827 27.6826 179.843 27.6951C179.974 27.7948 180.112 27.887 180.248 27.9842ZM157.116 20.6197C156.988 20.6396 156.858 20.6546 156.73 20.682C156.698 20.6895 156.668 20.7368 156.65 20.7692C156.615 20.8291 156.652 20.9113 156.762 20.9188C156.887 20.9288 157.018 20.8864 157.148 20.8665C157.314 20.8415 157.412 20.7493 157.351 20.6695C157.292 20.5922 157.212 20.5773 157.116 20.6197ZM16.7557 15.2919C16.841 15.2794 16.929 15.2695 17.0143 15.252C17.0943 15.2346 17.1557 15.1797 17.1957 15.0974C17.129 15.0326 17.0543 14.9977 16.9717 15.0052C16.841 15.0202 16.713 15.0401 16.5851 15.065C16.5051 15.08 16.4278 15.1348 16.4091 15.2196C16.3904 15.2844 16.569 15.3218 16.7557 15.2919ZM145.84 14.908C145.875 14.9304 145.909 14.9753 145.944 14.9753C146.029 14.9753 146.117 14.9603 146.197 14.9354C146.232 14.9254 146.259 14.8805 146.275 14.8456C146.285 14.8232 146.283 14.7833 146.267 14.7634C146.189 14.6437 145.88 14.6861 145.829 14.8232C145.824 14.8481 145.837 14.8805 145.84 14.908ZM137.427 1.25578C137.435 1.29567 137.438 1.33556 137.449 1.37545C137.47 1.45024 137.528 1.5051 137.614 1.54249C137.68 1.48017 137.715 1.41037 137.712 1.33558C137.71 1.29569 137.702 1.25577 137.691 1.21588C137.67 1.14109 137.611 1.08626 137.526 1.04887C137.459 1.1087 137.427 1.1785 137.427 1.25578ZM186.41 33.9228C186.386 33.9552 186.362 33.9876 186.336 34.0175C186.408 34.0898 186.474 34.1123 186.525 34.0724C186.557 34.0474 186.576 34.01 186.6 33.9776C186.528 33.9053 186.464 33.8854 186.41 33.9228ZM184.752 34.2619C184.786 34.2843 184.819 34.3142 184.856 34.3292C184.917 34.3541 184.973 34.3117 185.016 34.222C184.981 34.1995 184.949 34.1696 184.912 34.1546C184.851 34.1297 184.794 34.1721 184.752 34.2619ZM185.802 33.8056C185.784 33.8655 185.821 33.9153 185.92 33.9577C185.944 33.9253 185.976 33.8954 185.992 33.8605C186.018 33.8031 185.973 33.7508 185.877 33.7109C185.85 33.7408 185.826 33.7732 185.802 33.8056ZM180.173 31.1181C180.155 31.1779 180.192 31.2278 180.291 31.2701C180.315 31.2377 180.347 31.2078 180.363 31.1729C180.389 31.1156 180.344 31.0632 180.248 31.0233C180.221 31.0532 180.197 31.0857 180.173 31.1181ZM172.505 13.4769C172.481 13.5093 172.457 13.5418 172.43 13.5717C172.502 13.644 172.569 13.6664 172.619 13.6265C172.651 13.6016 172.67 13.5642 172.694 13.5318C172.622 13.4595 172.558 13.4395 172.505 13.4769ZM165.159 4.11785C165.223 4.1353 165.276 4.10041 165.321 4.00817C165.287 3.98573 165.255 3.95581 165.217 3.94085C165.156 3.91592 165.1 3.95831 165.057 4.04807C165.092 4.073 165.127 4.09541 165.159 4.11785ZM161.258 3.53198C161.234 3.56439 161.21 3.5968 161.183 3.62672C161.255 3.69902 161.321 3.72145 161.372 3.68156C161.404 3.65663 161.423 3.61923 161.447 3.58682C161.375 3.51452 161.311 3.49707 161.258 3.53198ZM134.803 1.25329C134.779 1.2857 134.755 1.31811 134.729 1.34803C134.801 1.42033 134.867 1.44276 134.918 1.40287C134.95 1.37794 134.969 1.34054 134.993 1.30813C134.921 1.23583 134.857 1.21838 134.803 1.25329ZM3.08198 21.5371C3.04731 21.5147 3.01268 21.4922 2.98068 21.4673C2.90335 21.5346 2.87936 21.5969 2.92203 21.6443C2.94869 21.6742 2.98866 21.6917 3.02332 21.7141C3.10332 21.6468 3.12197 21.587 3.08198 21.5371Z" fill="#FFE492"/>
<path d="M18.5473 12.7335C18.2406 12.7808 17.9367 12.8406 17.63 12.8705C17.4674 12.8854 17.4087 12.9926 17.3421 13.0923C17.2888 13.172 17.2274 13.1969 17.1288 13.2119C16.2968 13.334 15.4675 13.4636 14.6382 13.5906C14.5342 13.5583 14.4836 13.5059 14.5076 13.4436C14.5209 13.4063 14.5529 13.3539 14.5849 13.3489C15.1529 13.2567 15.7181 13.162 16.2888 13.0898C16.4514 13.0698 16.4968 12.9602 16.5794 12.8705C16.6061 12.8406 16.6275 12.7957 16.6621 12.7783C16.6968 12.7584 16.7474 12.7609 16.7928 12.7559C17.71 12.6138 18.6273 12.4743 19.5446 12.3323C19.6486 12.3647 19.6993 12.417 19.6753 12.4793C19.6619 12.5167 19.6299 12.569 19.5979 12.574C19.2459 12.6263 18.8966 12.6786 18.5473 12.7335Z" fill="#FFE492"/>
<path d="M186.445 26.0091C186.307 26.039 186.131 26.0814 185.987 25.9369C185.917 25.8671 185.843 25.8447 185.752 25.8596C185.621 25.8846 185.488 25.9045 185.355 25.9194C185.32 25.9219 185.275 25.8945 185.24 25.8721C185.165 25.8272 185.101 25.7525 185.021 25.7325C184.941 25.7126 184.845 25.7674 184.763 25.755C184.653 25.7375 184.608 25.6702 184.637 25.608C184.653 25.5731 184.685 25.5232 184.72 25.5158C185.213 25.4236 185.216 25.4236 185.355 25.5133C185.461 25.583 185.56 25.6603 185.712 25.6179C185.84 25.583 185.976 25.5755 186.107 25.5531C186.288 25.5232 186.288 25.5257 186.581 25.6827C186.656 25.7226 186.736 25.7201 186.832 25.6977C186.915 25.6802 186.995 25.7201 187.061 25.7874C187.019 25.8721 186.957 25.9269 186.875 25.9419C186.741 25.9668 186.611 25.9842 186.445 26.0091Z" fill="#FFE492"/>
<path d="M181.536 25.2412C181.872 25.1889 182.211 25.1441 182.547 25.0843C182.686 25.0594 182.795 25.0868 182.891 25.1715C182.995 25.2637 183.112 25.2562 183.24 25.2388C183.32 25.2288 183.398 25.2686 183.451 25.3384C183.472 25.3658 183.467 25.4157 183.475 25.4556C183.182 25.5004 182.886 25.5477 182.59 25.5876C182.555 25.5926 182.512 25.5677 182.48 25.5478C182.408 25.5054 182.347 25.4306 182.27 25.4157C182.104 25.3808 181.939 25.4481 181.771 25.4605C181.691 25.4655 181.614 25.4281 181.56 25.3609C181.539 25.3285 181.544 25.2811 181.536 25.2412Z" fill="#FFE492"/>
<path d="M60.1185 3.80575C60.4678 3.75092 60.8171 3.69862 61.1664 3.6438C61.2704 3.67868 61.3184 3.72851 61.2971 3.79081C61.2837 3.82819 61.2517 3.88052 61.2197 3.8855C60.5211 3.99764 59.8225 4.10477 59.1266 4.21192C59.0226 4.17703 58.9746 4.12721 58.9959 4.06491C59.0093 4.02753 59.0413 3.9752 59.0733 3.97022C59.4199 3.9129 59.7692 3.86057 60.1185 3.80575Z" fill="#FFE492"/>
<path d="M6.29217 17.6598C6.13496 17.6648 5.96979 17.7569 5.79392 17.6872C5.75928 17.6747 5.71131 17.6348 5.71397 17.6124C5.7193 17.575 5.75128 17.5277 5.78592 17.5127C5.9378 17.4504 6.12701 17.443 6.20428 17.2685C6.24158 17.1788 6.31086 17.1489 6.40412 17.1315C6.50271 17.1116 6.57197 17.119 6.64924 17.1713C6.7505 17.2386 6.83577 17.3632 6.99565 17.2984C7.00364 17.3383 7.02225 17.3832 7.01425 17.4205C7.00626 17.4579 6.97168 17.4928 6.9397 17.5202C6.91039 17.5451 6.87039 17.5675 6.83308 17.575C6.65722 17.6049 6.48135 17.6299 6.29217 17.6598Z" fill="#FFE492"/>
<path d="M144.971 17.1587C145.102 17.1388 145.238 17.1288 145.366 17.0939C145.467 17.0665 145.531 17.084 145.611 17.1438C145.747 17.2484 145.755 17.2385 146.088 17.2534C146.125 17.2559 146.171 17.2933 146.192 17.3257C146.206 17.3431 146.187 17.3905 146.171 17.4154C146.147 17.4478 146.112 17.4901 146.08 17.4901C145.869 17.4976 145.656 17.6446 145.451 17.4752C145.347 17.3905 145.232 17.3506 145.091 17.388C145.006 17.4104 144.915 17.4204 144.827 17.4303C144.742 17.4403 144.654 17.4129 144.6 17.3381C144.523 17.2285 144.568 17.1861 144.707 17.1936C144.795 17.1986 144.883 17.1712 144.971 17.1587Z" fill="#FFE492"/>
<path d="M193.297 34.3444C193.465 34.3195 193.633 34.2896 193.804 34.2696C193.838 34.2647 193.881 34.2921 193.913 34.3095C194.041 34.3843 194.022 34.5113 194.027 34.6235C194.03 34.7406 193.734 34.8353 193.609 34.7555C193.471 34.6658 193.345 34.5637 193.153 34.6185C193.079 34.6384 192.991 34.5936 192.943 34.5213C192.871 34.4167 192.911 34.3743 193.047 34.3818C193.127 34.3867 193.212 34.3593 193.297 34.3444Z" fill="#FFE492"/>
<path d="M108.642 0.410678C108.815 0.383267 108.989 0.340926 109.162 0.338434C109.263 0.335942 109.314 0.418158 109.29 0.477963C109.276 0.515341 109.244 0.567671 109.212 0.572655C108.866 0.632459 108.52 0.682305 108.173 0.737126C108.072 0.70224 108.021 0.649919 108.045 0.590115C108.059 0.552737 108.091 0.502898 108.123 0.495423C108.296 0.460537 108.469 0.438088 108.642 0.410678Z" fill="#FFE492"/>
<path d="M189.972 26.2286C190.14 26.2037 190.31 26.1663 190.478 26.1539C190.566 26.1489 190.636 26.2062 190.646 26.271C190.652 26.3009 190.609 26.3532 190.574 26.3657C190.335 26.4504 190.076 26.4604 189.826 26.5027C189.746 26.5152 189.66 26.4753 189.612 26.4055C189.54 26.2984 189.58 26.2585 189.716 26.266C189.802 26.2685 189.887 26.2411 189.972 26.2286Z" fill="#FFE492"/>
<path d="M149.376 17.496C149.461 17.4835 149.549 17.4511 149.631 17.4611C149.719 17.4736 149.775 17.5458 149.802 17.6181C149.831 17.7003 149.829 17.7776 149.802 17.8474C149.759 17.967 149.717 17.962 149.618 17.8822C149.466 17.7577 149.455 17.7726 149.154 17.7776C149.12 17.7776 149.077 17.7402 149.05 17.7078C149.01 17.658 149.032 17.5807 149.125 17.5359C149.194 17.5035 149.29 17.5085 149.376 17.496Z" fill="#FFE492"/>
<path d="M183.725 25.4113C183.851 25.3913 183.976 25.359 184.101 25.359C184.189 25.3565 184.258 25.4138 184.266 25.4761C184.269 25.506 184.229 25.5558 184.197 25.5708C184.045 25.638 183.875 25.643 183.709 25.6655C183.632 25.6754 183.547 25.6356 183.499 25.5658C183.427 25.4611 183.47 25.4138 183.6 25.4287C183.64 25.4337 183.683 25.4188 183.725 25.4113Z" fill="#FFE492"/>
<path d="M164.001 22.3521C163.815 22.382 163.639 22.3447 163.652 22.2799C163.671 22.1952 163.748 22.1403 163.828 22.1254C163.956 22.1004 164.084 22.0805 164.214 22.0656C164.297 22.0556 164.372 22.093 164.438 22.1578C164.398 22.2375 164.337 22.2948 164.257 22.3123C164.174 22.3297 164.086 22.3397 164.001 22.3521Z" fill="#FFE492"/>
<path d="M162.777 22.0334C162.903 22.0134 163.028 21.981 163.153 21.981C163.241 21.9785 163.31 22.0358 163.318 22.0981C163.321 22.128 163.281 22.1779 163.249 22.1928C163.097 22.2601 162.927 22.2651 162.761 22.2875C162.684 22.2975 162.599 22.2576 162.551 22.1878C162.479 22.0832 162.522 22.0359 162.652 22.0508C162.692 22.0558 162.735 22.0408 162.777 22.0334Z" fill="#FFE492"/>
<path d="M147.864 17.4758C147.989 17.4559 148.114 17.4235 148.239 17.421C148.327 17.4185 148.396 17.4758 148.404 17.5381C148.407 17.568 148.367 17.6154 148.335 17.6328C148.183 17.7001 148.013 17.7051 147.848 17.7275C147.77 17.7375 147.685 17.6976 147.637 17.6278C147.565 17.5232 147.608 17.4758 147.738 17.4908C147.778 17.4957 147.821 17.4808 147.864 17.4758Z" fill="#FFE492"/>
<path d="M147.162 17.3285C147.295 17.3086 147.338 17.2961 147.381 17.2961C147.46 17.2961 147.543 17.3261 147.591 17.3983C147.663 17.503 147.62 17.5329 147.49 17.5379C147.322 17.5429 147.157 17.5952 146.989 17.6052C146.901 17.6101 146.832 17.5503 146.826 17.488C146.824 17.4581 146.864 17.4058 146.896 17.3958C147.007 17.3584 147.13 17.336 147.162 17.3285Z" fill="#FFE492"/>
<path d="M161.692 2.66181C161.606 2.67427 161.516 2.70916 161.436 2.6967C161.329 2.67926 161.287 2.61199 161.313 2.54969C161.329 2.51481 161.359 2.46497 161.391 2.4575C161.561 2.42261 161.734 2.40016 161.905 2.37524C162.006 2.41262 162.051 2.46495 162.025 2.52724C162.009 2.56213 161.98 2.60947 161.948 2.61944C161.865 2.64436 161.777 2.64935 161.692 2.66181Z" fill="#FFE492"/>
<path d="M58.2054 4.10048C58.288 4.09798 58.3626 4.13038 58.4265 4.19267C58.3865 4.27241 58.3279 4.32474 58.248 4.34717C58.208 4.35713 58.1627 4.3646 58.1201 4.36709C58.0375 4.37208 57.9629 4.33719 57.8989 4.27489C57.9389 4.19515 58.0002 4.14283 58.0774 4.1204C58.1174 4.11043 58.1628 4.10795 58.2054 4.10048Z" fill="#FFE492"/>
<path d="M189.061 26.2192C189.059 26.1469 189.221 26.0647 189.368 26.0672C189.445 26.0697 189.525 26.1046 189.57 26.1719C189.64 26.274 189.599 26.3139 189.469 26.3064C189.389 26.3014 189.304 26.3438 189.224 26.3363C189.133 26.3338 189.08 26.279 189.061 26.2192Z" fill="#FFE492"/>
<path d="M150.148 17.7969C150.146 17.7695 150.132 17.7371 150.14 17.7122C150.191 17.5751 150.498 17.5328 150.577 17.6524C150.591 17.6748 150.596 17.7122 150.585 17.7346C150.57 17.7695 150.54 17.8143 150.508 17.8243C150.426 17.8492 150.34 17.8617 150.255 17.8642C150.218 17.8642 150.183 17.8218 150.148 17.7969Z" fill="#FFE492"/>
<path d="M7.24116 17.2611C6.92674 17.3134 6.92142 17.3084 6.97737 17.1838C7.028 17.0717 7.12127 17.0044 7.25717 17.0044C7.29713 17.0044 7.33975 16.9994 7.37439 17.0094C7.4117 17.0219 7.46502 17.0468 7.47301 17.0767C7.489 17.134 7.44366 17.1963 7.36372 17.2386C7.32908 17.2586 7.2838 17.2536 7.24116 17.2611Z" fill="#FFE492"/>
<path d="M62.1444 3.74905C62.0512 3.79141 61.9713 3.77647 61.9126 3.69673C61.854 3.61699 61.9473 3.52229 62.1098 3.49987C62.1524 3.49488 62.1977 3.47496 62.2377 3.48493C62.2777 3.49241 62.3177 3.52228 62.3417 3.55219C62.3843 3.60202 62.3576 3.66932 62.2724 3.72664C62.2377 3.74906 62.1871 3.74407 62.1444 3.74905Z" fill="#FFE492"/>
<path d="M188.506 26.0315C188.53 25.9991 188.554 25.9667 188.58 25.9368C188.679 25.9791 188.721 26.029 188.695 26.0863C188.679 26.1212 188.647 26.1511 188.623 26.1835C188.524 26.1411 188.484 26.0888 188.506 26.0315Z" fill="#FFE492"/>
<path d="M11.4656 45.6427C11.4656 45.6128 11.5029 45.5654 11.5322 45.5555C11.5881 45.538 11.6574 45.5729 11.7054 45.6427C11.772 45.7424 11.732 45.7947 11.6095 45.7673C11.5242 45.7473 11.4656 45.6975 11.4656 45.6427Z" fill="#FFE492"/>
<path d="M151.234 15.4763C151.268 15.4987 151.303 15.5211 151.335 15.546C151.29 15.6382 151.234 15.6781 151.175 15.6532C151.138 15.6382 151.106 15.6083 151.071 15.5859C151.117 15.4937 151.17 15.4588 151.234 15.4763Z" fill="#FFE492"/>
<path d="M150.312 15.3644C150.365 15.327 150.429 15.347 150.504 15.4192C150.48 15.4516 150.458 15.489 150.429 15.5139C150.378 15.5538 150.312 15.5338 150.24 15.4591C150.261 15.4292 150.285 15.3968 150.312 15.3644Z" fill="#FFE492"/>
<path d="M149.605 15.4745C149.64 15.4969 149.674 15.5193 149.706 15.5442C149.661 15.6364 149.608 15.6763 149.546 15.6514C149.509 15.6364 149.477 15.6065 149.442 15.5841C149.488 15.4919 149.541 15.4545 149.605 15.4745Z" fill="#FFE492"/>
<path d="M149.084 15.3418C149.124 15.3916 149.103 15.4514 149.026 15.5187C148.991 15.4962 148.951 15.4788 148.925 15.4489C148.882 15.4016 148.903 15.3393 148.983 15.272C149.015 15.2969 149.05 15.3193 149.084 15.3418Z" fill="#FFE492"/>
</svg>
